<?xml version="1.0" encoding="utf-8"?>
<!-- Generator: Adobe Illustrator 24.0.2, SVG Export Plug-In . SVG Version: 6.00 Build 0)  -->
<svg version="1.1" id="Layer_1" xmlns="http://www.w3.org/2000/svg" xmlns:xlink="http://www.w3.org/1999/xlink" x="0px" y="0px"
	 viewBox="0 0 500 500" style="enable-background:new 0 0 500 500;" xml:space="preserve">
<style type="text/css">
	.st0{fill:#010101;}
</style>
<g transform="translate(0.000000,216.000000) scale(0.100000,-0.100000)">
	<path class="st0" d="M3098.04,1616.37c-267.15-360.05-271.68-371.74-228.66-434.87c63.39-93.52,110.93-63.13,305.64,196.39
		c104.14,140.28,192.44,238.48,203.76,226.79s126.78-166,255.83-346.03C4220.97,454.38,4388.5,0.8,4261.72-431.73
		c-52.07-180.03-172.06-364.73-303.37-465.26c-133.57-105.21-133.57-240.82,0-240.82c79.24,0,344.12,278.22,423.36,446.56
		c271.68,577.49,119.99,1105.88-597.69,2090.19c-321.48,441.88-373.55,502.67-430.15,502.67
		C3324.44,1901.61,3240.67,1808.09,3098.04,1616.37z"/>
	<path class="st0" d="M1913.99,1625.72c-33.96-25.72-543.35-706.08-726.73-974.95C890.68,218.24,668.81-202.6,555.61-543.95
		c-54.34-163.66-63.39-219.77-63.39-488.65c-2.26-252.51,6.79-332,47.54-467.6c206.02-666.33,851.25-1126.92,1516.86-1077.82
		c615.8,46.76,1147.83,472.28,1331.21,1066.13c29.43,98.2,61.13,252.51,67.92,343.69c54.33,558.79-287.52,1285.91-1129.72,2401.14
		C2031.72,1625.72,1979.65,1672.48,1913.99,1625.72z"/>
</g>
</svg>
