<?xml version="1.0" encoding="utf-8"?>
<!-- Generator: Adobe Illustrator 24.0.2, SVG Export Plug-In . SVG Version: 6.00 Build 0)  -->
<svg version="1.1" id="Layer_1" xmlns="http://www.w3.org/2000/svg" xmlns:xlink="http://www.w3.org/1999/xlink" x="0px" y="0px"
	 viewBox="0 0 500 500" style="enable-background:new 0 0 500 500;" xml:space="preserve">
<g>
	<g>
		<path d="M250.08,43.98c1.69,2.3,3.2,4.33,4.68,6.38c8.93,12.42,17.87,24.84,26.77,37.28c7.93,11.08,15.79,22.21,23.73,33.29
			c8.3,11.6,16.67,23.16,24.98,34.76c7.89,11.01,15.74,22.06,23.62,33.08c5.51,7.71,11.07,15.39,16.56,23.13
			c7.83,11.04,14.04,22.92,18.54,35.7c2.49,7.08,4.46,14.27,5.88,21.65c2.35,12.24,3.4,24.53,2.34,36.96
			c-0.46,5.41-0.88,10.84-1.77,16.19c-0.82,4.93-2.22,9.77-3.42,14.64c-1.36,5.51-3.36,10.79-5.48,16.04
			c-2.81,6.96-6.2,13.61-10.05,20.04c-7.37,12.33-16.39,23.33-27.01,32.99c-8.34,7.59-17.45,14.14-27.3,19.67
			c-9.63,5.4-19.74,9.67-30.3,12.78c-5.34,1.57-10.82,2.73-16.29,3.76c-10.09,1.9-20.29,2.59-30.55,2.18
			c-7.43-0.3-14.8-1.08-22.13-2.5c-7.45-1.44-14.77-3.31-21.91-5.84c-12.45-4.42-24.12-10.37-34.97-17.93s-20.59-16.37-29.08-26.52
			c-8.64-10.32-15.77-21.6-21.29-33.88c-3.4-7.57-6.34-15.31-8.21-23.41c-1.11-4.81-2.11-9.65-3.02-14.5
			c-1.55-8.28-2.16-16.66-1.93-25.06c0.17-6.06,0.6-12.15,1.42-18.16c1.28-9.41,3.48-18.65,6.63-27.62
			c4.94-14.05,11.79-27.11,20.58-39.17c6.71-9.21,13.25-18.54,19.89-27.8c6.55-9.13,13.14-18.23,19.7-27.36
			c6.42-8.94,12.81-17.89,19.21-26.84c9.37-13.09,18.75-26.17,28.11-39.26c10.11-14.14,20.22-28.28,30.33-42.42
			C248.81,45.59,249.32,44.97,250.08,43.98z M355.03,269.19c-0.12-0.58-0.15-0.89-0.25-1.18c-1.65-4.73-3.13-9.53-5.02-14.16
			c-2.79-6.8-6.43-13.16-10.7-19.14c-6.39-8.95-12.8-17.89-19.19-26.83c-7.83-10.96-15.63-21.94-23.47-32.89
			c-6.58-9.2-13.22-18.36-19.81-27.55c-8.45-11.79-16.88-23.59-25.33-35.37c-0.34-0.48-0.82-0.86-1.35-1.41
			c-2.18,3.05-4.21,5.91-6.25,8.76c-7.73,10.84-15.44,21.69-23.18,32.52c-8.42,11.8-16.87,23.58-25.3,35.37
			c-6.63,9.27-13.26,18.54-19.92,27.79c-4.85,6.73-9.85,13.35-14.61,20.13c-5.85,8.33-10.28,17.41-13.61,27.03
			c-0.77,2.23-1.32,4.54-1.99,6.86c0.57,0.22,0.86,0.43,1.15,0.43c69.18,0.02,138.36,0.03,207.53,0.03
			C354.09,269.56,354.46,269.36,355.03,269.19z M142.73,311.76c1.64,22.01,16.37,56.57,49.28,77.25
			c35.37,22.23,81.5,22.95,118.27-1.47c16.65-11.06,29.29-25.7,37.9-43.74c4.82-10.09,8.1-20.67,9.5-32.04
			C285.87,311.76,214.4,311.76,142.73,311.76z"/>
	</g>
</g>
</svg>
