<?xml version="1.0" encoding="utf-8"?>
<!-- Generator: Adobe Illustrator 24.0.2, SVG Export Plug-In . SVG Version: 6.00 Build 0)  -->
<svg version="1.1" id="Layer_1" xmlns="http://www.w3.org/2000/svg" xmlns:xlink="http://www.w3.org/1999/xlink" x="0px" y="0px"
	 viewBox="0 0 500 500" style="enable-background:new 0 0 500 500;" xml:space="preserve">
<g>
	<path d="M467.02,311.72c0,3.84,0.26,7.7-0.06,11.51c-0.5,6.04-1.36,12.05-2.13,18.07c-0.35,2.76-0.75,5.53-1.32,8.26
		c-0.74,3.58-1.57,7.15-2.55,10.68c-1.12,4.05-2.35,8.08-3.69,12.07c-2.69,7.98-6.01,15.69-9.94,23.15
		c-6.64,12.6-14.99,23.96-24.98,34.07c-11.49,11.62-25.05,20.22-39.97,26.72c-5.31,2.31-10.8,4.13-16.4,5.68
		c-5.08,1.4-10.21,2.37-15.38,3.34c-12.13,2.28-24.33,2.04-36.54,1.52c-3.88-0.16-7.74-0.94-11.58-1.59
		c-4.08-0.69-8.14-1.49-12.18-2.4c-5.9-1.32-11.63-3.24-17.21-5.53c-7.8-3.2-15.29-7.04-22.35-11.68
		c-10.7-7.03-20.14-15.43-28.33-25.29c-8.8-10.59-15.87-22.21-21.39-34.81c-2.61-5.96-5.04-11.99-6.77-18.27
		c-1.35-4.9-2.96-9.74-4.02-14.69c-1.18-5.52-1.92-11.14-2.74-16.73c-0.59-4.02-1.07-8.07-1.49-12.12
		c-0.21-2.06-0.23-4.15-0.25-6.23c-0.04-4.48-0.04-8.96-0.03-13.44c0.01-4.88,0.72-9.69,1.64-14.47c0.66-3.44,1.1-6.93,1.84-10.36
		c0.78-3.57,1.71-7.11,2.73-10.62c1.59-5.48,3.21-10.97,5.02-16.38c1.63-4.88,3.4-9.72,5.33-14.49c3.21-7.95,6.39-15.93,9.95-23.72
		c5.63-12.33,11.42-24.6,17.44-36.74c4.79-9.67,9.88-19.19,15.07-28.64c6.34-11.54,12.83-23,19.42-34.4
		c6.31-10.92,12.66-21.84,19.31-32.56c7.61-12.28,15.57-24.34,23.4-36.49c1.16-1.8,2.33-3.62,3.7-5.26
		c2.89-3.48,6.62-5.58,11.08-6.51c10.5-2.17,18.17,2.07,23.82,10.58c5.79,8.72,11.44,17.53,17.01,26.39
		c5.28,8.4,10.46,16.87,15.51,25.42c7.66,12.97,15.28,25.98,22.7,39.08c5.48,9.67,10.73,19.46,15.87,29.31
		c5.51,10.54,10.97,21.12,16.09,31.85c5.29,11.09,10.51,22.23,14.85,33.75c2.57,6.83,5.13,13.66,7.69,20.49
		c2.71,7.22,4.84,14.61,6.86,22.05c1.67,6.16,2.92,12.39,4.02,18.65C467.26,297.8,467.4,304.76,467.02,311.72z M326.21,94.33
		c-0.69,0.84-1.18,1.32-1.53,1.89c-7.58,12.49-15.31,24.89-22.66,37.51c-7.65,13.15-14.95,26.51-22.38,39.78
		c-8.53,15.23-16.3,30.85-23.73,46.65c-4.59,9.76-8.89,19.66-12.8,29.72c-3.95,10.14-7.79,20.32-10.42,30.89
		c-1.48,5.94-3.05,11.88-3.98,17.92c-0.78,5.03-1.22,10.19-0.65,15.31c0.53,4.84,0.19,9.74,1.23,14.56
		c0.81,3.73,1.24,7.53,1.77,11.32c0.75,5.3,2.25,10.42,3.86,15.48c2.88,9.03,6.66,17.66,11.72,25.73
		c6.75,10.78,15.19,19.92,25.62,27.19c9.1,6.34,19.19,10.53,29.93,13.03c4.72,1.1,9.62,1.42,14.43,2.08
		c7.92,1.09,15.81,0.42,23.69-0.42c3.32-0.36,6.66-0.88,9.89-1.72c5.14-1.35,10.22-2.88,15.13-5c7.49-3.25,14.44-7.39,20.67-12.64
		c10.41-8.78,18.67-19.31,24.5-31.63c2.57-5.44,4.81-11.06,6.78-16.75c1.53-4.41,2.57-9.02,3.53-13.6
		c0.83-3.98,1.37-8.03,1.81-12.07c0.63-5.87,1.15-11.76,1.53-17.65c0.23-3.58,0.09-7.17-0.62-10.74c-0.6-3.04-0.7-6.18-1.32-9.22
		c-1.41-6.94-3.18-13.79-5.49-20.49c-1.89-5.47-3.5-11.05-5.65-16.42c-3.68-9.2-7.56-18.33-11.59-27.38
		c-3.68-8.26-7.5-16.47-11.57-24.54c-5.5-10.91-11.16-21.75-17.01-32.48c-6.23-11.42-12.65-22.75-19.2-34
		c-6.71-11.52-13.68-22.9-20.55-34.33C329.65,99.77,328.07,97.31,326.21,94.33z"/>
	<path d="M109.59,249.7c-6.21,0.46-12.33-0.34-18.31-1.77c-7.82-1.87-15.22-4.88-22.03-9.27c-5.25-3.39-10.02-7.27-14.28-11.85
		c-4.69-5.04-8.53-10.67-11.7-16.75c-3.54-6.8-5.98-14.01-7.61-21.48c-0.63-2.87-0.71-5.86-1.31-8.74
		c-1.11-5.31-0.86-10.68-0.67-16.02c0.12-3.31,0.85-6.62,1.46-9.9c0.46-2.5,1.05-4.99,1.79-7.42c1.44-4.71,2.78-9.47,4.61-14.03
		c2.5-6.25,5.23-12.43,8.2-18.48c3.98-8.11,8.15-16.13,12.48-24.05c3.91-7.16,8.05-14.2,12.29-21.18c4.25-6.98,8.7-13.84,13.14-20.7
		c1.85-2.85,3.73-5.71,5.87-8.34c2.9-3.57,6.79-5.48,11.34-6.46c7.36-1.58,13.61,0.56,18.96,5.34c2.37,2.12,4.17,4.97,5.93,7.68
		c7.57,11.65,15.11,23.31,22.49,35.08c5.4,8.61,10.32,17.52,14.72,26.68c3.71,7.73,7.28,15.53,10.56,23.45
		c2.18,5.26,4,10.71,5.55,16.2c1.99,7.08,2.97,14.32,2.86,21.74c-0.09,6.27-0.57,12.49-1.87,18.57
		c-2.51,11.75-6.87,22.81-14.17,32.48c-6.94,9.2-15.41,16.69-25.97,21.55c-4.02,1.85-8.11,3.72-12.35,4.94
		C124.42,249.04,117.08,250.23,109.59,249.7z M108.79,95.55c-0.24,0.02-0.48,0.04-0.73,0.06c-1,1.8-2,3.59-3,5.39
		c-4.78,8.59-9.65,17.14-14.33,25.79c-3.55,6.56-6.59,13.36-9.29,20.31c-1.73,4.44-3.51,8.86-4.38,13.56
		c-0.52,2.81-1.11,5.67-1.05,8.5c0.09,4.61,0.66,9.18,2.02,13.66c1.61,5.31,3.82,10.21,7.55,14.39c4.13,4.63,9.31,7.48,15.31,8.59
		c4.38,0.81,8.8,0.99,13.34,0.36c8.02-1.1,14.49-4.53,19.32-10.99c4.25-5.69,6.3-12.24,6.94-19.24c0.5-5.43,0.47-10.9-1.09-16.16
		c-1.42-4.77-3.07-9.5-5.02-14.08c-3.02-7.08-6.24-14.08-9.65-20.97c-3.3-6.68-6.91-13.21-10.46-19.76
		C112.55,101.77,110.63,98.68,108.79,95.55z"/>
</g>
</svg>
