<?xml version="1.0" encoding="utf-8"?>
<!-- Generator: Adobe Illustrator 24.0.2, SVG Export Plug-In . SVG Version: 6.00 Build 0)  -->
<svg version="1.1" id="Layer_1" xmlns="http://www.w3.org/2000/svg" xmlns:xlink="http://www.w3.org/1999/xlink" x="0px" y="0px"
	 viewBox="0 0 500 500" style="enable-background:new 0 0 500 500;" xml:space="preserve">
<g>
	<path d="M378.76,409.5c-2.01,2.1-3.75,3.94-5.52,5.74c-8.16,8.29-16.99,15.74-26.63,22.3c-9.02,6.13-18.51,11.37-28.47,15.74
		c-4.06,1.78-8.25,3.28-12.45,4.72c-4.35,1.5-8.72,2.97-13.17,4.09c-4.62,1.16-9.38,1.77-14.03,2.81
		c-6.42,1.45-12.97,1.68-19.49,2.21c-6.38,0.52-12.78,0.58-19.16-0.21c-0.87-0.11-1.75-0.17-2.63-0.19
		c-4.88-0.12-9.69-0.81-14.48-1.74c-3.52-0.68-7.11-1.05-10.6-1.86c-4.25-0.99-8.46-2.16-12.61-3.5c-4.45-1.44-8.83-3.11-13.19-4.8
		c-8.52-3.31-16.64-7.45-24.46-12.17c-8.44-5.09-16.38-10.87-23.84-17.32c-12.77-11.04-23.73-23.65-32.83-37.88
		c-6.13-9.58-11.36-19.62-15.45-30.23c-2.02-5.25-3.98-10.56-5.53-15.96c-1.55-5.41-2.67-10.96-3.77-16.49
		c-0.98-4.91-1.81-9.87-2.44-14.84c-0.5-3.96-0.65-7.97-0.85-11.96c-0.44-9.05,0.03-18.07,0.8-27.08c0.27-3.16,0.95-6.29,1.52-9.43
		c0.87-4.86,1.66-9.74,2.75-14.56c0.95-4.17,2.07-8.34,3.49-12.37c2.05-5.82,4.29-11.59,6.72-17.27
		c3.85-8.99,8.95-17.32,14.21-25.54c6.59-10.3,13.72-20.22,21.09-29.98c1.42-1.88,1.46-1.93-0.15-3.56
		c-6.05-6.1-12.12-12.17-18.19-18.24c-12.48-12.48-24.97-24.95-37.45-37.43c-9.33-9.33-18.66-18.67-27.98-28.01
		c-1.68-1.69-3.38-3.36-5.01-5.1c-2.79-2.98-4.3-6.54-5.16-10.53c-2.23-10.35,4.64-20.4,12.88-23.96
		c7.58-3.28,16.94-2.01,22.88,3.77c7.24,7.05,14.39,14.21,21.54,21.35c11.55,11.53,23.07,23.1,34.61,34.65
		c13.57,13.57,27.15,27.13,40.72,40.71c13.18,13.18,26.34,26.37,39.52,39.55c14.53,14.53,29.08,29.04,43.61,43.57
		c14.97,14.98,29.92,29.98,44.9,44.95c13.35,13.34,26.73,26.65,40.08,39.99c11.6,11.59,23.18,23.21,34.78,34.81
		c12.56,12.56,25.13,25.1,37.68,37.66c10.19,10.2,20.35,20.43,30.54,30.62c7.43,7.44,14.84,14.9,22.35,22.26
		c5.73,5.62,7.95,12.46,6.81,20.22c-1.24,8.41-5.68,14.66-14.05,17.31c-3.3,1.04-6.79,1.35-10.4,0.77
		c-6.04-0.97-10.34-4.47-14.44-8.6c-13.79-13.91-27.66-27.75-41.49-41.61c-1.69-1.69-3.37-3.39-5.07-5.07
		C380.53,411.12,379.77,410.44,378.76,409.5z M159.65,189.86c-0.56,0.64-0.79,0.86-0.97,1.11c-7.56,10.12-14.81,20.45-21.22,31.34
		c-3.17,5.39-6.11,10.93-8.22,16.84c-1.6,4.48-3.09,9-4.47,13.55c-0.79,2.58-1.34,5.24-1.88,7.89c-0.47,2.34-0.81,4.7-1.14,7.06
		c-0.51,3.63-1.26,7.26-1.38,10.9c-0.22,6.79-0.16,13.59-0.03,20.39c0.06,3.11,0.38,6.23,0.88,9.3c0.66,3.99,1.53,7.95,2.5,11.88
		c1.11,4.55,2.18,9.14,3.71,13.55c2.25,6.53,5.01,12.85,8.23,18.99c8.22,15.7,19.06,29.24,32.61,40.64
		c7.57,6.37,15.75,11.81,24.56,16.3c5.51,2.81,11.17,5.28,17.07,7.18c4.15,1.33,8.34,2.51,12.59,3.52
		c6.55,1.56,13.19,2.5,19.86,2.94c9.33,0.61,18.65,0.14,27.93-1.45c5.66-0.97,11.25-2.17,16.71-3.83c8.6-2.62,16.8-6.2,24.65-10.61
		c12.02-6.76,22.62-15.26,31.93-25.4c1.27-1.38,2.41-2.89,3.73-4.47C284.67,314.87,222.23,252.44,159.65,189.86z"/>
	<path d="M193.1,91.66c0.29-6.62,2.91-12.11,7.36-16.75c11.38-11.88,22.76-23.76,34.29-35.49c4.47-4.55,10.14-6.88,16.57-6.56
		c5.55,0.28,10.59,2.27,14.5,6.35c12.25,12.82,24.53,25.62,36.58,38.63c10.53,11.37,20.84,22.95,31.09,34.58
		c7.41,8.41,14.67,16.95,21.77,25.61c6.6,8.04,13.02,16.25,19.34,24.52c4.82,6.31,9.43,12.78,13.98,19.28
		c7.61,10.86,14.6,22.12,20.18,34.17c3.33,7.19,6.15,14.63,8.08,22.35c1.36,5.47,2.75,10.94,3.97,16.45c0.6,2.71,0.85,5.5,1.24,8.26
		c0.51,3.63,1,7.26,1.51,10.88c1.33,9.4-4.21,20.1-13.86,23.95c-11.61,4.64-25.45-2.36-28.36-13.82c-0.9-3.53-1.1-7.23-1.64-10.85
		c-0.49-3.3-0.95-6.61-1.54-9.9c-0.54-2.98-1.2-5.94-1.88-8.88c-1.17-5.03-2.82-9.92-4.74-14.71c-4.82-12.1-11.67-23.06-19.16-33.63
		c-6.6-9.31-13.4-18.49-20.4-27.52c-6.17-7.96-12.57-15.75-19.14-23.39c-10.25-11.93-20.62-23.78-31.15-35.47
		c-9.74-10.81-19.77-21.37-29.68-32.04c-0.11-0.12-0.21-0.24-0.32-0.35c-1.27-1.26-1.42-1.29-2.65-0.05c-2.35,2.37-4.7,4.75-7,7.17
		c-3.88,4.09-7.66,8.29-11.61,12.32c-2.89,2.95-6.47,4.64-10.51,5.69c-3.82,0.99-7.55,0.85-11.1-0.32
		c-7.16-2.36-12.48-6.86-14.53-14.46C193.76,95.72,193.49,93.67,193.1,91.66z"/>
</g>
</svg>
