<?xml version="1.0" encoding="utf-8"?>
<!-- Generator: Adobe Illustrator 24.0.2, SVG Export Plug-In . SVG Version: 6.00 Build 0)  -->
<svg version="1.1" id="Layer_1" xmlns="http://www.w3.org/2000/svg" xmlns:xlink="http://www.w3.org/1999/xlink" x="0px" y="0px"
	 viewBox="0 0 500 500" style="enable-background:new 0 0 500 500;" xml:space="preserve">
<g>
	<path d="M254.36,297.17c-1.1,0.78-2.14,1.48-3.15,2.23c-0.74,0.55-1.4,1.21-2.16,1.74c-1.15,0.8-2.37,1.49-3.51,2.29
		c-0.77,0.54-1.41,1.26-2.19,1.79c-1.09,0.74-2.27,1.33-3.37,2.05c-1.01,0.67-1.94,1.47-2.95,2.15c-0.56,0.38-1.2,0.63-1.8,0.93
		c-1.67,0.85-3.34,1.7-5.01,2.56c-1.57,0.81-3.12,1.65-4.7,2.44c-1.05,0.52-2.37,0.74-3.15,1.51c-1.24,1.22-2.93,1.3-4.31,2.16
		c-1.47,0.91-3.3,1.22-4.96,1.86c-1.65,0.64-3.27,1.35-4.91,2.03c-0.15,0.06-0.3,0.11-0.45,0.16c-1.67,0.54-3.32,1.12-5.01,1.59
		c-1.48,0.41-3.02,0.62-4.51,1.03c-1.19,0.33-2.32,0.84-3.48,1.27c-0.11,0.04-0.22,0.08-0.34,0.1c-1.92,0.33-3.84,0.68-5.76,0.99
		c-1.68,0.27-3.54,0.14-4.99,0.85c-1.93,0.94-3.93,0.24-5.73,0.84c-2.31,0.77-4.66,0.39-6.95,0.79c-7.62,1.31-15.29,0.45-22.93,0.52
		c-2.52,0.02-5.04-0.48-7.56-0.77c-2-0.23-4.22-0.04-5.94-0.86c-1.91-0.91-4.02-0.03-5.73-1.24c-0.03-0.02-0.08-0.02-0.12-0.03
		c-1.92-0.33-3.86-0.6-5.76-1.03c-1.28-0.29-2.51-0.79-3.76-1.2c-0.11-0.04-0.21-0.12-0.32-0.15c-1.54-0.35-3.19-0.47-4.61-1.1
		c-1.23-0.54-2.75-0.23-3.76-1.36c-0.12-0.13-0.47-0.03-0.69-0.11c-1.15-0.44-2.28-0.89-3.42-1.35c-0.11-0.04-0.21-0.12-0.32-0.16
		c-1.81-0.59-3.64-1.09-5.41-1.78c-1.53-0.6-2.98-1.42-4.48-2.1c-1.4-0.63-2.87-1.12-4.25-1.8c-1.27-0.63-2.44-1.45-3.67-2.15
		c-0.61-0.35-1.28-0.58-1.9-0.93c-1.82-1.02-3.62-2.08-5.44-3.12c-0.99-0.57-2.03-1.07-2.99-1.68c-1.13-0.71-2.2-1.51-3.31-2.24
		c-1.35-0.88-2.76-1.68-4.07-2.62c-1.56-1.1-3.04-2.32-4.58-3.47c-1.7-1.27-3.46-2.47-5.13-3.78c-0.97-0.76-1.78-1.72-2.71-2.54
		c-0.89-0.79-1.87-1.47-2.76-2.26c-0.92-0.82-1.79-1.7-2.67-2.57c-1.54-1.52-3.11-3.03-4.6-4.6c-0.89-0.93-1.66-1.97-2.5-2.95
		c-0.93-1.08-1.9-2.14-2.83-3.23c-0.97-1.13-1.91-2.28-2.86-3.43c-0.62-0.76-1.26-1.51-1.83-2.3c-1.03-1.44-2-2.93-3.04-4.35
		c-0.9-1.23-1.93-2.38-2.82-3.63c-0.72-1.02-1.3-2.13-1.94-3.2c-0.61-1-1.21-1.99-1.83-2.98c-0.69-1.11-1.44-2.18-2.09-3.31
		c-1.07-1.84-2.11-3.71-3.11-5.59c-0.39-0.75-0.58-1.61-0.94-2.37c-0.36-0.77-0.84-1.49-1.25-2.23c-0.32-0.58-0.67-1.16-0.92-1.77
		c-0.36-0.85-0.63-1.74-0.97-2.61c-0.34-0.87-0.71-1.72-1.07-2.59c-0.45-1.09-0.88-2.18-1.34-3.27c-0.4-0.95-0.81-1.9-1.22-2.85
		c-0.08-0.18-0.22-0.34-0.27-0.53c-0.29-1.16-0.5-2.35-0.86-3.48c-0.39-1.19-0.92-2.33-1.39-3.5c-0.06-0.15-0.15-0.29-0.18-0.44
		c-0.27-1.33-0.46-2.67-0.82-3.98c-0.43-1.57-1.03-3.1-1.51-4.67c-0.29-0.95-0.58-1.92-0.74-2.9c-0.35-2.15-0.44-4.35-0.98-6.45
		c-0.55-2.13-0.43-4.38-1-6.41c-0.51-1.83-0.28-3.59-0.56-5.36c-0.9-5.8-0.75-11.65-0.75-17.49c0-1.76-0.18-3.56,0.11-5.27
		c0.57-3.42,0.38-6.9,0.85-10.28c0.24-1.73,0.4-3.49,0.65-5.22c0.22-1.55,0.25-3.23,0.9-4.6c0.7-1.46,0.44-2.93,0.77-4.36
		c0.3-1.29,0.86-2.52,1.3-3.78c0.07-0.19,0.09-0.39,0.13-0.58c0.3-1.57,0.53-3.16,0.92-4.71c0.46-1.81,1.04-3.6,1.61-5.38
		c0.49-1.54,1.01-3.06,1.55-4.58c0.52-1.45,1.02-2.9,1.63-4.31c0.6-1.38,1.36-2.68,1.98-4.05c0.43-0.95,0.7-1.98,1.12-2.93
		c0.34-0.77,0.79-1.49,1.19-2.23c0.35-0.66,0.73-1.3,1.05-1.97c0.62-1.32,1.12-2.69,1.81-3.96c0.9-1.64,1.96-3.19,2.9-4.81
		c0.89-1.53,1.67-3.11,2.57-4.63c0.6-1.03,1.33-1.98,1.98-2.98c0.71-1.08,1.37-2.18,2.09-3.26c0.82-1.24,1.64-2.49,2.53-3.69
		c0.55-0.73,1.26-1.34,1.84-2.05c1.02-1.26,1.94-2.61,3.01-3.82c3.01-3.43,6.06-6.81,9.11-10.2c2.13-2.37,4.4-4.57,6.99-6.47
		c1.62-1.19,2.94-2.78,4.45-4.13c1.32-1.19,2.6-2.5,4.13-3.36c1.2-0.67,2.04-1.69,3.14-2.42c1.38-0.9,2.79-1.76,4.14-2.69
		c0.97-0.67,1.84-1.48,2.82-2.13c0.96-0.64,2.02-1.16,3.01-1.76c1.66-1,3.28-2.05,4.97-3.01c1.23-0.7,2.54-1.26,3.8-1.91
		c1.36-0.7,2.69-1.46,4.05-2.16c0.73-0.37,1.5-0.65,2.24-1.01c0.88-0.42,1.74-0.9,2.62-1.31c0.8-0.37,1.62-0.7,2.43-1.04
		c1.14-0.48,2.26-0.98,3.41-1.43c0.83-0.32,1.7-0.56,2.54-0.87c1.32-0.49,2.62-1.04,3.96-1.49c1.17-0.39,2.39-0.65,3.58-1.02
		c1.34-0.42,2.66-0.91,3.99-1.37c0.11-0.04,0.23-0.07,0.34-0.11c0.83-0.25,1.65-0.57,2.5-0.75c1.65-0.36,3.41-0.4,4.95-1.02
		c1.54-0.62,3.17-0.27,4.6-0.76c3.05-1.04,6.26-1.02,9.32-1.71c3.01-0.69,6.02-0.13,8.93-0.7c6.62-1.29,13.28-0.72,19.89-0.44
		c3.29,0.14,6.63,0.32,9.93,0.66c2.24,0.23,4.43,0.86,6.65,1.27c0.58,0.11,1.2,0.08,1.79,0.12c0.81,0.06,1.7-0.13,2.28,0.71
		c0.07,0.1,0.29,0.12,0.44,0.15c1.85,0.28,3.71,0.45,5.54,0.84c1.65,0.36,3.24,0.98,4.87,1.43c1.26,0.35,2.56,0.57,3.81,0.93
		c1.36,0.4,2.68,0.91,4.02,1.35c1.09,0.36,2.19,0.67,3.28,1.02c0.95,0.31,1.89,0.65,2.83,1c1.25,0.46,2.5,0.91,3.73,1.44
		c0.81,0.35,1.56,0.84,2.34,1.25c0.24,0.13,0.52,0.18,0.77,0.3c0.99,0.45,1.98,0.91,2.97,1.37c0.6,0.28,1.2,0.59,1.81,0.86
		c1.39,0.6,2.82,1.1,4.16,1.78c1.24,0.63,2.37,1.47,3.57,2.19c0.98,0.58,1.99,1.11,2.99,1.67c1.21,0.67,2.47,1.22,3.55,2.16
		c0.93,0.82,2.19,1.26,3.26,1.93c1.25,0.78,2.46,1.62,3.66,2.47c1.37,0.97,2.73,1.96,4.08,2.97c0.84,0.63,1.63,1.33,2.46,1.97
		c1.96,1.52,3.99,2.97,5.89,4.56c1.47,1.23,2.81,2.63,4.19,3.97c1.66,1.61,3.36,3.19,4.96,4.87c2.16,2.27,4.25,4.61,6.33,6.96
		c1.09,1.23,2.1,2.54,3.17,3.79c1.25,1.46,2.62,2.83,3.79,4.36c0.99,1.3,1.73,2.79,2.65,4.14c0.87,1.28,1.86,2.47,2.73,3.75
		c0.72,1.06,1.33,2.2,2,3.3c0.62,1.01,1.26,2,1.89,3c0.41,0.65,0.83,1.28,1.19,1.95c0.33,0.62,0.57,1.3,0.89,1.93
		c0.77,1.53,1.55,3.05,2.37,4.55c0.39,0.72,0.94,1.35,1.34,2.06c0.36,0.63,0.65,1.3,0.91,1.98c0.6,1.55,1.1,3.14,1.75,4.65
		c0.68,1.57,1.54,3.06,2.25,4.62c0.36,0.79,0.52,1.66,0.82,2.47c0.2,0.54,0.53,1.04,0.7,1.59c0.37,1.17,0.62,2.37,1.01,3.53
		c0.39,1.19,0.88,2.34,1.32,3.51c0.03,0.07,0.04,0.15,0.06,0.23c0.34,1.46,0.64,2.93,1.02,4.38c0.41,1.54,0.89,3.05,1.34,4.58
		c0.02,0.08,0.06,0.15,0.07,0.23c0.31,1.9,0.34,3.91,1.01,5.68c0.71,1.86,0.25,3.81,0.85,5.52c0.54,1.53,0.29,3.07,0.71,4.5
		c1.01,3.49,0.27,7.11,0.91,10.57c0.86,4.67,0.55,9.32,0.47,13.97c-0.07,3.93-0.51,7.87-0.86,11.79c-0.16,1.77-0.18,3.64-0.79,5.26
		c-0.65,1.72-0.38,3.42-0.67,5.09c-0.27,1.59-0.81,3.14-1.24,4.71c-0.04,0.15-0.14,0.29-0.16,0.45c-0.33,1.83-0.56,3.67-1,5.47
		c-0.29,1.21-0.87,2.35-1.32,3.52c-0.06,0.15-0.1,0.3-0.14,0.46c-0.31,1.41-0.55,2.84-0.96,4.23c-0.32,1.1-0.86,2.13-1.3,3.19
		c-0.07,0.18-0.05,0.4-0.12,0.58c-0.45,1.18-0.92,2.36-1.37,3.54c-0.09,0.22-0.17,0.44-0.24,0.67c-0.57,1.7-0.97,3.49-1.76,5.08
		c-0.86,1.73-1.66,3.46-2.36,5.26c-0.53,1.35-1.39,2.57-2.1,3.85c-0.32,0.58-0.73,1.14-0.92,1.77c-0.45,1.51-1.22,2.79-2.25,3.99
		c-0.5,0.59-0.64,1.48-0.99,2.21c-0.16,0.33-0.43,0.59-0.64,0.9c-0.55,0.83-1.1,1.67-1.62,2.51c-0.51,0.82,0.18,2.05,1.16,2.77
		c1.5,1.11,2.86,2.42,4.28,3.65c1.11,0.96,2.23,1.92,3.34,2.89c1.28,1.12,2.56,2.26,3.83,3.39c1.37,1.22,2.72,2.46,4.09,3.68
		c1,0.89,2.03,1.75,3.03,2.64c1.09,0.97,2.15,1.97,3.25,2.94c1.04,0.92,2.11,1.8,3.15,2.71c1.35,1.18,2.69,2.39,4.04,3.58
		c1.03,0.91,2.19,1.71,3.05,2.75c0.72,0.87,1.37,0.54,2.08,0.29c0.49-0.17,0.94-0.47,1.39-0.73c2.19-1.29,4.58-1.65,7.05-1.38
		c1.46,0.16,2.83,0.66,4.21,1.28c1.51,0.67,2.81,1.51,4.01,2.58c0.97,0.86,1.92,1.72,2.9,2.57c2.49,2.14,5.02,4.24,7.48,6.42
		c1.85,1.64,3.56,3.44,5.4,5.09c1.65,1.47,3.44,2.77,5.09,4.23c2.28,2.02,4.47,4.15,6.73,6.19c1.28,1.15,2.66,2.2,3.97,3.32
		c1.29,1.1,2.56,2.24,3.85,3.35c1.19,1.03,2.42,2.02,3.59,3.08c0.98,0.89,1.86,1.88,2.85,2.77c0.79,0.71,1.7,1.3,2.49,2.01
		c1.04,0.93,2,1.95,3.05,2.88c1.06,0.94,2.17,1.8,3.27,2.7c0.72,0.59,1.48,1.15,2.18,1.77c1.43,1.26,2.84,2.54,4.25,3.81
		c0.98,0.88,1.95,1.76,2.95,2.62c0.89,0.76,1.83,1.47,2.72,2.23c0.92,0.78,1.8,1.59,2.7,2.4c1.4,1.27,2.79,2.55,4.19,3.81
		c1.84,1.65,3.69,3.29,5.52,4.95c2.22,2,4.27,4.23,6.67,5.98c2.29,1.67,4.24,3.64,6.26,5.57c1.09,1.04,2.5,1.75,3.67,2.72
		c1.27,1.06,2.42,2.25,3.63,3.37c2.12,1.96,4.24,3.92,6.39,5.85c1.02,0.91,2.13,1.72,3.16,2.61c0.99,0.86,1.92,1.79,2.92,2.65
		c1.17,1.01,2.4,1.94,3.57,2.95c0.99,0.86,1.91,1.82,2.9,2.68c1.73,1.51,3.53,2.95,5.24,4.49c1.97,1.77,3.86,3.64,5.83,5.4
		c1.3,1.15,2.74,2.14,4.03,3.3c1.34,1.19,2.55,2.54,3.88,3.74c0.81,0.73,1.83,1.23,2.62,1.98c2.13,2.04,4.22,4.11,6.23,6.25
		c0.78,0.83,1.29,1.88,1.42,3.09c0.06,0.54,0.58,1.04,0.62,1.58c0.13,2,0.9,4.07-0.53,5.94c-0.09,0.11-0.09,0.31-0.09,0.46
		c0.03,1.56-0.82,2.77-1.64,3.95c-0.67,0.97-1.54,1.79-2.35,2.66c-0.24,0.26-0.57,0.44-0.86,0.65c-0.21,0.15-0.5,0.25-0.63,0.46
		c-0.34,0.53-0.54,1.14-0.91,1.65c-0.72,0.99-1.49,1.94-2.29,2.88c-0.62,0.73-1.32,1.4-1.97,2.11c-1.55,1.71-3.43,3.09-4.62,5.16
		c-0.61,1.07-1.64,1.9-2.51,2.81c-1.2,1.26-2.48,2.45-3.65,3.75c-0.87,0.97-1.54,2.13-2.44,3.08c-1.19,1.25-2.56,2.33-3.76,3.57
		c-0.89,0.91-1.64,1.95-2.45,2.93c-0.95,1.15-1.9,2.31-2.85,3.47c-0.13,0.16-0.42,0.34-0.4,0.48c0.17,0.98-0.75,1.23-1.21,1.67
		c-0.53,0.5-1.38,0.67-2.09,0.98c-1.1,0.47-2.17,1.13-3.32,1.36c-1.81,0.36-3.68,0.66-5.47-0.21c-0.21-0.1-0.43-0.17-0.66-0.22
		c-2.22-0.42-4.03-1.57-5.69-3.08c-1.39-1.27-2.99-2.31-4.41-3.57c-1.76-1.56-3.4-3.24-5.11-4.84c-1.05-0.98-2.16-1.9-3.24-2.85
		c-1.33-1.17-2.68-2.32-4-3.5c-2.22-1.98-4.26-4.23-6.69-5.9c-1.87-1.28-3.26-3.02-5.08-4.33c-1.91-1.38-3.56-3.12-5.35-4.67
		c-1.88-1.63-3.91-3.12-5.67-4.88c-1.49-1.49-3.06-2.81-4.73-4.09c-1.86-1.43-3.4-3.27-5.15-4.86c-1.13-1.03-2.39-1.93-3.57-2.91
		c-0.62-0.52-1.17-1.12-1.78-1.66c-1.44-1.29-2.88-2.57-4.32-3.84c-0.95-0.84-1.9-1.67-2.86-2.5c-1.49-1.3-2.99-2.59-4.48-3.89
		c-1.39-1.21-2.81-2.4-4.16-3.65c-1.48-1.37-2.86-2.87-4.37-4.21c-1.55-1.39-3.24-2.63-4.8-4c-2.38-2.08-4.68-4.25-7.06-6.33
		c-1.29-1.13-2.69-2.14-3.99-3.26c-1.56-1.34-3.06-2.75-4.6-4.11c-0.87-0.77-1.76-1.51-2.63-2.28c-1.29-1.13-2.55-2.3-3.85-3.42
		c-1.17-1-2.39-1.94-3.55-2.95c-0.88-0.76-1.68-1.63-2.57-2.38c-1.3-1.11-2.67-2.13-3.96-3.26c-1.11-0.97-2.14-2.04-3.22-3.05
		c-0.87-0.81-1.76-1.61-2.65-2.4c-1.35-1.2-2.7-2.39-4.07-3.57c-1.7-1.47-3.43-2.9-5.11-4.4c-1.98-1.77-3.87-3.63-5.86-5.38
		c-1.36-1.2-2.88-2.21-4.22-3.42c-1.3-1.18-2.48-2.5-3.7-3.76c-0.53-0.55-1.12-1.05-1.58-1.65c-0.53-0.69-1.12-1.41-1.39-2.21
		c-0.8-2.42-1.44-4.94-0.8-7.46c0.29-1.17,0.31-2.52,1.32-3.52c0.44-0.43,0.81-1.19,0.77-1.77c-0.04-0.61-0.47-1.32-0.95-1.75
		c-1.26-1.16-2.66-2.16-3.94-3.29c-1.32-1.18-2.52-2.48-3.84-3.66c-0.8-0.71-1.78-1.21-2.58-1.91c-1.31-1.16-2.53-2.44-3.82-3.62
		c-1.03-0.94-2.13-1.81-3.19-2.73c-1.01-0.88-1.99-1.79-3.01-2.65c-1.19-1-2.43-1.94-3.62-2.94c-0.66-0.55-1.24-1.18-1.88-1.76
		c-1.45-1.3-2.92-2.59-4.38-3.89C256.42,299.08,255.37,298.1,254.36,297.17z M158.44,296.83c0.01,0.1,0.01,0.2,0.02,0.3
		c5.23-0.33,10.46-0.66,15.7-0.99c0.24-0.02,0.6,0.01,0.69-0.12c0.67-0.99,1.7-0.65,2.61-0.74c0.95-0.1,1.92-0.06,2.85-0.26
		c1.6-0.34,3.16-0.85,4.75-1.22c1.61-0.37,3.28-0.51,4.83-1.04c1.72-0.58,3.39-1.32,5.23-1.45c0.12-0.01,0.25-0.02,0.35-0.06
		c1.67-0.74,3.32-1.54,5.01-2.21c1.71-0.67,3.48-1.2,5.2-1.82c0.64-0.23,1.25-0.53,1.85-0.85c0.87-0.45,1.69-0.99,2.57-1.4
		c1.23-0.58,2.53-1.03,3.75-1.65c0.75-0.38,1.34-1.05,2.08-1.47c1.63-0.94,3.32-1.77,4.95-2.7c0.46-0.26,0.8-0.74,1.24-1.05
		c0.92-0.63,1.87-1.21,2.8-1.82c1.39-0.91,2.81-1.77,4.13-2.77c1.55-1.17,2.99-2.5,4.53-3.67c0.85-0.65,2.04-0.94,2.7-1.71
		c1.03-1.21,2.56-1.34,3.76-2.15c0.84-0.57,1.97-0.69,2.95-1.08c1.77-0.71,3.52-1.46,5.48-1.42c0.48,0.01,0.99,0.08,1.43-0.04
		c0.97-0.26,2.04-0.47,2.81-1.04c0.37-0.27,0.21-1.34,0.18-2.04c-0.12-3.27,0.29-6.48,0.98-9.66c0.21-0.97,0.6-1.91,0.99-2.82
		c0.36-0.83,0.88-1.59,1.26-2.41c0.38-0.8,0.64-1.65,1.01-2.44c0.28-0.59,0.64-1.13,0.99-1.69c0.43-0.69,0.9-1.35,1.32-2.04
		c0.37-0.62,0.65-1.29,1.03-1.89c0.65-1.03,1.43-1.99,2.02-3.05c0.84-1.5,1.57-3.07,2.32-4.62c0.32-0.67,0.61-1.36,0.87-2.05
		c0.36-0.97,0.53-2.04,1.05-2.9c0.71-1.17,1.32-2.33,1.45-3.71c0.01-0.15,0.08-0.3,0.14-0.44c0.45-1.01,0.98-1.99,1.34-3.02
		c0.41-1.21,0.6-2.5,1.02-3.71c0.63-1.82,1.44-3.58,1.51-5.55c0-0.12,0.02-0.24,0.06-0.35c0.46-1.44,1.06-2.86,1.34-4.34
		c0.28-1.45,0.2-2.92,0.79-4.39c0.59-1.48,0.66-3.19,0.84-4.82c0.29-2.54-0.33-5.16,0.74-7.62c-0.2-5.46,0.62-10.93-0.51-16.4
		c-0.6-2.9-0.05-5.97-0.84-8.94c-0.59-2.22-0.7-4.57-1.02-6.87c-0.02-0.12-0.08-0.23-0.11-0.34c-0.45-1.66-0.91-3.31-1.34-4.97
		c-0.36-1.35-0.68-2.7-1.03-4.06c-0.02-0.07-0.12-0.11-0.15-0.18c-0.42-1.16-0.85-2.32-1.23-3.49c-0.37-1.14-0.68-2.3-1.03-3.45
		c-0.23-0.73-0.45-1.46-0.74-2.17c-0.46-1.1-1-2.16-1.46-3.25c-0.35-0.81-0.56-1.69-0.96-2.48c-0.67-1.3-1.47-2.53-2.16-3.82
		c-0.54-1-1.12-2-1.5-3.07c-0.54-1.51-1.54-2.71-2.37-4.03c-0.87-1.37-1.63-2.81-2.47-4.2c-0.84-1.39-1.67-2.81-2.61-4.13
		c-0.95-1.35-2.03-2.6-3.06-3.89c-0.72-0.9-1.44-1.79-2.17-2.68c-0.57-0.7-1.14-1.41-1.74-2.1c-0.99-1.14-1.97-2.27-2.99-3.38
		c-1.4-1.53-2.81-3.06-4.26-4.55c-0.9-0.92-1.84-1.8-2.83-2.62c-0.8-0.67-1.74-1.17-2.54-1.84c-1.81-1.49-3.54-3.06-5.36-4.53
		c-0.82-0.67-1.78-1.16-2.65-1.78c-1.73-1.23-3.4-2.55-5.16-3.71c-1.65-1.09-3.39-2.06-5.11-3.04c-1.16-0.66-2.34-1.29-3.53-1.89
		c-1.19-0.6-2.42-1.14-3.61-1.74c-1.36-0.69-2.66-1.51-4.05-2.11c-1.66-0.71-3.42-1.17-5.07-1.88c-1.36-0.58-2.63-1.34-4.16-1.39
		c-0.14,0-0.28-0.13-0.42-0.19c-1.12-0.47-2.21-1.04-3.37-1.37c-1.47-0.41-3-0.63-4.5-0.93c-0.08-0.02-0.14-0.07-0.22-0.1
		c-1.25-0.45-2.47-1.04-3.75-1.32c-1.53-0.34-3.13,0-4.69-0.74c-1.19-0.57-2.66-0.58-4.02-0.74c-2.91-0.34-5.83-0.81-8.75-0.89
		c-5.36-0.14-10.72-0.04-16.08-0.03c-0.52,0-1.04,0.06-1.55,0.13c-1.8,0.22-3.6,0.47-5.4,0.68c-0.75,0.09-1.52,0.07-2.26,0.2
		c-2.17,0.39-4.32,0.83-6.48,1.27c-1.73,0.36-3.46,0.74-5.19,1.11c-0.91,0.2-1.84,0.36-2.73,0.63c-1.38,0.42-2.73,0.96-4.11,1.39
		c-1.23,0.38-2.48,0.66-3.72,1.03c-0.59,0.17-1.14,0.45-1.72,0.67c-0.79,0.3-1.6,0.55-2.37,0.89c-1.06,0.46-2.09,0.99-3.15,1.46
		c-0.84,0.37-1.74,0.64-2.56,1.04c-1.3,0.65-2.54,1.4-3.83,2.06c-1.81,0.92-3.67,1.74-5.44,2.72c-1.68,0.93-3.27,2.02-4.89,3.06
		c-0.6,0.39-1.19,0.8-1.77,1.22c-1.19,0.85-2.37,1.73-3.57,2.58c-1.43,1.02-2.91,1.98-4.3,3.05c-0.99,0.76-1.83,1.71-2.81,2.49
		c-1.14,0.92-2.43,1.65-3.5,2.64c-1.26,1.18-2.29,2.61-3.54,3.81c-2.25,2.16-4.59,4.23-6.4,6.82c-0.54,0.77-1.31,1.38-1.95,2.08
		c-0.58,0.64-1.42,1.24-1.61,1.99c-0.44,1.77-2.39,2.35-2.86,4.15c-0.29,1.1-1.44,1.96-2.12,2.99c-0.87,1.3-1.68,2.65-2.49,4
		c-1.26,2.08-2.55,4.14-3.76,6.25c-1.16,2.02-1.94,4.24-3.15,6.25c-0.83,1.38-1.15,3.06-1.7,4.61c-0.06,0.18-0.11,0.37-0.21,0.54
		c-0.43,0.72-1,1.39-1.29,2.17c-0.59,1.56-1.02,3.18-1.53,4.78c-0.56,1.78-1.19,3.55-1.67,5.35c-0.37,1.38-0.56,2.82-0.82,4.23
		c-0.04,0.24-0.04,0.48-0.1,0.71c-0.47,1.74-1.04,3.47-1.42,5.23c-0.31,1.47-0.3,2.97-0.67,4.48c-0.69,2.82-0.88,5.81-0.96,8.74
		c-0.14,5.24-0.05,10.48-0.04,15.72c0,0.64,0.07,1.28,0.14,1.91c0.22,1.85,0.46,3.69,0.67,5.54c0.08,0.71-0.01,1.46,0.14,2.15
		c0.39,1.75,0.96,3.47,1.3,5.23c0.27,1.41,0.25,2.81,0.8,4.25c0.9,2.39,1.22,5,1.78,7.52c0.03,0.16,0.07,0.31,0.11,0.47
		c0.49,1.5,0.98,2.99,1.46,4.49c0.05,0.15,0.06,0.31,0.12,0.46c0.47,1.08,1,2.13,1.41,3.23c0.37,0.98,0.51,2.05,0.95,2.98
		c0.63,1.35,1.48,2.58,2.15,3.92c0.83,1.67,1.56,3.4,2.35,5.09c0.25,0.53,0.61,1.01,0.87,1.54c0.39,0.79,0.67,1.64,1.12,2.39
		c0.61,1.02,1.38,1.93,2,2.94c0.66,1.08,1.14,2.27,1.84,3.32c1.26,1.87,2.62,3.67,3.96,5.49c0.67,0.91,1.34,1.81,2.06,2.68
		c1.06,1.26,2.17,2.48,3.24,3.73c1.21,1.41,2.37,2.86,3.64,4.22c1.18,1.26,2.47,2.4,3.7,3.6c0.66,0.65,1.25,1.39,1.96,1.99
		c1.39,1.17,2.88,2.22,4.27,3.39c1.72,1.46,3.29,3.12,5.1,4.45c1.84,1.34,3.78,2.52,5.56,3.97c1.25,1.02,2.77,1.72,4.19,2.54
		c0.55,0.32,1.15,0.55,1.73,0.84c0.56,0.28,1.13,0.54,1.67,0.85c1.26,0.74,2.47,1.59,3.78,2.23c1.86,0.92,3.8,1.68,5.7,2.53
		c0.64,0.29,1.26,0.64,1.89,0.94c0.92,0.44,1.83,0.93,2.79,1.28c1.06,0.39,2.21,0.55,3.23,1.02c1.46,0.66,2.86,1.42,4.51,1.45
		c0.12,0,0.25,0,0.35,0.05c1.17,0.48,2.3,1.1,3.52,1.41c1.73,0.45,3.52,0.66,5.28,0.98c0.12,0.02,0.24,0.03,0.35,0.06
		c1.43,0.43,2.84,0.96,4.29,1.27c1.8,0.38,3.62,0.19,5.5,0.84c2.35,0.82,5.05,0.71,7.61,0.81
		C152.67,296.92,155.56,296.83,158.44,296.83z"/>
</g>
</svg>
