<?xml version="1.0" encoding="utf-8"?>
<!-- Generator: Adobe Illustrator 24.0.2, SVG Export Plug-In . SVG Version: 6.00 Build 0)  -->
<svg version="1.1" id="Layer_1" xmlns="http://www.w3.org/2000/svg" xmlns:xlink="http://www.w3.org/1999/xlink" x="0px" y="0px"
	 viewBox="0 0 500 500" style="enable-background:new 0 0 500 500;" xml:space="preserve">
<style type="text/css">
	.st0{fill:#FFFFFF;}
	.st1{fill:#F7D59B;}
</style>
<g>
	<path class="st0" d="M194.6,444.1c-21.9,0-43.8,0-65.8,0c-5.7,0-11.2-0.7-16.6-2.2c-7.6-2.2-14.5-5.8-20.7-10.7
		c-7.8-6.2-13.8-13.9-17.8-23.1c-2.7-6.3-4.2-12.9-4.4-19.7C69,375.9,72,364.4,78.7,354c7.2-11.4,17.2-19.4,29.8-24.1
		c5-1.9,10.1-3.1,15.4-3.4c5.9-0.4,11.1-4.8,11.3-11.7c0-1.4,0.1-2.9,0.2-4.3c0.4-8.6,2.9-16.6,7-24.1c5.2-9.5,12.5-17.1,21.8-22.7
		c6-3.6,12.4-6.2,19.3-7.3c3.7-0.6,7.5-1.3,11.2-1.2c16.4,0.4,30.6,6.1,42.3,17.8c7.3,7.4,12.3,16,15.1,25.9c1.4,5,2,10.2,2.1,15.4
		c0.1,3,0.7,5.7,2.7,8c2,2.4,4.5,3.8,7.6,4.1c17,1.5,31,8.7,42,21.8c6.6,8,10.8,17.2,12.6,27.5c1,5.9,1.2,11.8,0.4,17.7
		c-1,7.8-3.6,15.2-7.8,22c-7.8,12.6-18.8,21.3-32.9,26c-5.8,1.9-11.8,2.8-17.9,2.8C238.8,444,216.7,444.1,194.6,444.1z"/>
	<path class="st1" d="M154.9,242.3c-0.8-2.1-1.6-4.1-2.2-6c-2.5-8.1-4.6-16.3-5.8-24.7c-1.1-8.1-2-16.2-1.8-24.4
		c0.2-8.2,0.7-16.5,2.4-24.6c1.2-5.5,2.2-11,3.7-16.3c4-13.8,9.9-26.8,17.6-38.9c9.4-14.7,21-27.5,34.8-38.3
		c5.8-4.6,12-8.7,18.5-12.4c4.3-2.5,8.8-1.1,10.5,3.2c0.6,1.4,0.5,2.8,0.1,4.2c-2.4,7.8-4.1,15.8-5.1,23.8c-1.1,9.4-1.6,18.8-1,28.2
		c0.5,7.3,1.3,14.5,2.7,21.6c1.3,6.5,3,12.9,5.2,19.1c3.3,9.8,7.6,19.1,12.9,28c4,6.7,8.5,13.1,13.4,19.2
		c12.6,15.4,27.7,27.8,45.1,37.3c7.9,4.3,16.1,7.8,24.6,10.6c6.8,2.2,13.8,4.1,20.8,5.4c5.5,1,11.1,1.8,16.6,2c8,0.3,16,0.1,24-0.3
		c9.4-0.5,18.6-2.6,27.8-5c1.3-0.3,2.6-0.7,3.9-0.9c5.1-0.5,8.8,5.3,6.1,10c-4.8,8.7-10.5,16.8-16.9,24.3
		c-9.5,11.1-20.4,20.7-32.6,28.7c-8,5.3-16.5,9.6-25.4,13.3c-7.7,3.2-15.6,5.5-23.7,7.5c-1.2,0.3-2.4,0.4-3.8,0.7
		c-12.8-17.2-29.7-28.5-50.8-33.1c-4.5-28.6-18.9-50.3-44.5-63.4C206.7,228.2,180.8,229.2,154.9,242.3z"/>
</g>
</svg>
