<?xml version="1.0" encoding="utf-8"?>
<!-- Generator: Adobe Illustrator 24.0.2, SVG Export Plug-In . SVG Version: 6.00 Build 0)  -->
<svg version="1.1" id="Layer_1" xmlns="http://www.w3.org/2000/svg" xmlns:xlink="http://www.w3.org/1999/xlink" x="0px" y="0px"
	 viewBox="0 0 500 500" style="enable-background:new 0 0 500 500;" xml:space="preserve">
<style type="text/css">
	.st0{fill:#FFFFFF;}
	.st1{fill:#FFC061;}
</style>
<g>
	<path class="st0" d="M219.8,459.9c-40.1,0-80.2,0-120.2,0c-6.2,0-12.3-0.4-18.3-1.6c-7-1.4-13.8-3.8-20.3-6.9
		c-10.2-5-19-11.7-26.5-20.2c-7.8-8.8-13.6-18.8-17.3-30c-3.5-10.4-4.8-21.1-4.2-32.1c0.5-8.5,2.3-16.7,5.4-24.7
		c5-12.9,12.7-23.9,22.9-33.1c8.6-7.8,18.5-13.6,29.5-17.4c1.3-0.5,1.8-1.2,2-2.3c0.5-2.5,1.1-5,1.6-7.5c1.4-6.2,3.6-12,6.2-17.8
		c4.9-10.9,11.6-20.7,19.9-29.4c6.4-6.7,13.6-12.5,21.6-17.3c8.4-5.1,17.4-9,26.9-11.6c11.4-3,23-4.2,34.9-3.3
		c11.4,0.8,22.3,3.4,32.7,7.7c13.8,5.7,25.9,14,36.3,24.8c0.4,0.5,1,0.9,1.3,1.4c0.8,1.2,1.9,1.1,3,0.8c6.3-1.9,12.8-2.6,19.4-2.6
		c7.9,0.1,15.6,1.1,23.1,3.5c19.3,6,34.5,17.5,45.4,34.7c2.6,4.1,4.9,8.4,6.6,13c0.4,1,0.9,1.5,2.1,1.6c9.6,1.3,18.8,4.2,27.5,8.7
		c5.4,2.8,10.4,6.1,15.2,10c7.2,5.8,13.2,12.7,18.1,20.5c3.4,5.3,6.1,11,8.1,17c1.6,4.8,2.9,9.6,3.6,14.6c0.9,6.9,1.5,13.8,0.5,20.8
		c-0.5,3.6-1,7.3-1.6,10.9c-1.1,6.6-3.4,12.8-6.2,18.8c-5.9,12.5-14.3,23-25.2,31.4c-8.2,6.3-17.3,11-27.2,14.1
		c-8.6,2.6-17.3,3.8-26.2,3.7C300,459.8,259.9,459.9,219.8,459.9z"/>
	<path class="st1" d="M320.1,110.9c18.8,0.4,35.1,4.5,50.1,13.3c14.3,8.4,25.5,19.8,33.9,34c4.4,7.4,7.6,15.4,9.9,23.7
		c2,7.2,2.8,14.6,3.4,22c0.4,5.8-0.4,11.5-1.1,17.2c-0.9,7.1-2.8,13.9-5.3,20.6c-1.9,4.9-3.9,9.8-6.9,14.1c-1.3,1.9-3.3,3.4-5,5.1
		c-0.9,0.9-1.8,0.8-2.9,0.4c-4.9-1.9-9.8-3.8-14.7-5.7c-1.3-0.5-2.3-1.1-3.1-2.4c-6.1-9.9-13.6-18.7-22.4-26.4
		c-12.2-10.7-26-18.6-41.5-23.5c-5.9-1.9-11.8-3.3-17.9-4.4c-8.1-1.4-16.2-1.6-24.4-1.7c-2,0-3.6-0.5-5.3-1.8
		c-8.9-6.9-18.4-12.9-28.6-17.7c-1.6-0.8-2.5-1.8-2.5-3.6c0-0.8-0.3-1.6-0.4-2.4c-0.7-4.2-0.2-8.2,1.9-12
		c4.6-8.1,10.2-15.4,16.9-21.9c6.1-5.9,12.9-10.9,20.4-14.9c7.8-4.3,16-7.5,24.7-9.4c4-0.9,8-1.4,12-1.9
		C314.9,111.2,318.3,111,320.1,110.9z"/>
	<path class="st1" d="M196.3,156.9c-1.2-0.4-2.1-0.5-2.8-0.9c-5.1-2.9-10.3-5.7-15.2-8.9c-6.7-4.4-9.6-10.9-8.5-18.9
		c1.2-8.6,7.4-14.6,16-16.5c5.6-1.2,10.5,0,15.3,2.8c4.4,2.6,8.8,5.2,13.5,7.9c-0.6,0.9-1,1.7-1.5,2.4c-5.3,6.5-9.7,13.6-13.2,21.2
		c-1.2,2.6-1.8,5.4-2.6,8.1C196.9,154.9,196.7,155.7,196.3,156.9z"/>
	<path class="st1" d="M404.8,99.1c-5.4-3.6-10.6-7.2-16-10.7c-5.4-3.5-11.2-5.9-17.1-8.3c0.5-2.3,0.9-4.4,2.1-6.3
		c1.9-3,3.6-6,5.4-9.1c4.1-6.9,10.5-10.2,18.4-10.2c9,0,15,5.2,17.8,14c2.2,6.8,0.5,13-3.3,18.9c-1.6,2.5-3.1,5.2-4.6,7.8
		C406.5,96.5,406.6,98.4,404.8,99.1z"/>
	<path class="st1" d="M261.5,59.9c0-7.8,5.9-15.9,13.5-18.6c7.3-2.6,13.6-0.8,19.3,4.1c3.6,3.1,5.5,7.1,7,11.5
		c1.2,3.8,2.5,7.6,3.8,11.3c0.1,0.4,0.3,0.8,0.4,1.2c0.3,1.3,0,1.8-1.3,2c-1.2,0.2-2.5,0.4-3.8,0.6c-9.4,1.6-18.7,4-27.6,7.5
		c-1,0.4-2.1,0.7-3.1,1.2c-1.2,0.6-2,0.2-2.6-0.8c-0.4-0.5-0.6-1.1-0.8-1.7c-1.5-4.8-3-9.6-4.4-14.4
		C261.5,62.5,261.6,61.2,261.5,59.9z"/>
	<path class="st1" d="M447.2,256.1c2.7,1.6,5,3,7.4,4.4c3,1.8,6.1,3.4,9,5.4c6.9,4.7,9.8,11.3,8.8,19.6c-0.4,3.4-2.1,6.1-4.3,8.6
		c-4.4,4.9-9.8,7.5-16.5,7.1c-2.7-0.2-5.2-0.9-7.5-2.3c-3.9-2.3-7.9-4.5-11.7-6.9c-1.8-1.1-3.5-2.4-5.4-3.8c4.6-4.8,8.9-9.3,12-14.9
		C441.9,267.9,444.8,262.3,447.2,256.1z"/>
	<path class="st1" d="M456.4,190c-2.4-12.4-4.6-25-10-37c1.2-0.4,2.3-0.9,3.5-1.3c4.7-1.4,9.5-2.7,14.2-4.2
		c3.6-1.1,7.1-0.2,10.2,1.1c6.4,2.8,10.8,7.5,12.5,14.4c1.5,6.3-0.1,12-4.2,17c-2.9,3.5-6.6,5.6-11,6.7c-3.4,0.9-6.7,2-10,3.1
		C459.9,190.3,458.2,190.3,456.4,190z"/>
</g>
</svg>
