<?xml version="1.0" encoding="utf-8"?>
<!-- Generator: Adobe Illustrator 24.0.2, SVG Export Plug-In . SVG Version: 6.00 Build 0)  -->
<svg version="1.1" id="Layer_1" xmlns="http://www.w3.org/2000/svg" xmlns:xlink="http://www.w3.org/1999/xlink" x="0px" y="0px"
	 viewBox="0 0 500 500" style="enable-background:new 0 0 500 500;" xml:space="preserve">
<style type="text/css">
	.st0{fill:#FFC061;}
</style>
<g>
	<path class="st0" d="M49.5,333c2.8-3.4,5.2-6.1,7.5-9c4.1-5,7.7-10.3,10.6-16.1c2.4-4.9,4.1-10,4.4-15.5c0.3-7.2-2.1-13.4-6.5-19
		c-5.1-6.5-11.6-11.3-18.5-15.6c-3.9-2.4-8-4.5-12-6.8c-0.5-0.3-1-0.7-1.7-1.2c2.8-1.5,5.3-2.9,7.8-4.2c7.5-4.2,14.7-8.9,20.8-15
		c4.5-4.5,7.9-9.6,9.4-15.8c0.6-2.4,0.6-5.1,0.6-7.6c-0.2-6.5-2.6-12.4-5.8-18c-4-7.3-9.2-13.8-14.6-19.9c-0.6-0.7-1.1-1.4-1.7-2.1
		c0.4-0.3,0.5-0.4,0.6-0.4c3.7-0.4,7.3-0.5,11-1.1c3.9-0.6,7.8-1.4,11.7-2.1c3.9-0.7,7.7-2,11.3-3.6c6.2-2.7,11.5-6.6,15-12.4
		c1.9-3.1,3.1-6.6,3.7-10.2c1.2-6.5,0.5-12.9-0.7-19.3c-1.2-6.5-2.9-12.9-5.1-19.1c-0.2-0.6-0.3-1.2-0.5-2.3c2,0.6,3.7,1.1,5.4,1.5
		c4.3,1.2,8.5,2.6,12.9,3.5c4.3,0.9,8.7,1.5,13,1.8c5.6,0.4,11-0.5,16.2-2.6c7-2.9,11.6-8.2,14.9-14.8c2.5-5.1,4.1-10.5,5.2-16.1
		c1.3-6.4,2.2-12.9,2.4-19.5c0-0.2,0.2-0.4,0.4-1c0.8,0.5,1.5,0.9,2.1,1.4c5.4,5,11.2,9.4,17.5,13.3c5.2,3.2,10.6,5.8,16.6,6.9
		c8.3,1.6,15.8-0.4,22.6-5.4c5.5-4.1,9.9-9.2,13.6-14.9c3.7-5.7,7.1-11.7,10.7-17.7c0.3,0.3,0.7,0.7,1,1.2c3.1,5.8,6.3,11.6,10.1,17
		c4.1,5.7,8.5,11.1,14.4,15.1c7.1,4.8,14.8,6.2,23.2,4.2c7.8-1.9,14.5-5.9,20.9-10.6c4-3,7.8-6.3,11.7-9.4c0.4-0.3,0.9-0.6,1.6-1.1
		c0.3,1.5,0.7,2.7,0.8,3.9c0.2,6.1,1.2,12,2.5,18c1.4,6.3,3.4,12.4,6.8,18c3.9,6.3,9.2,10.6,16.5,12.5c5.5,1.4,10.9,1.8,16.6,1.1
		c5.1-0.7,10.1-1.7,15-2.9c3.2-0.8,6.2-1.9,9.3-2.9c0.9-0.3,1.8-0.5,3.1-0.8c-0.5,1.7-0.8,3-1.2,4.2c-1.8,5.3-3.3,10.8-4.4,16.3
		c-1.2,6.2-1.7,12.4-1,18.6c1.1,9.5,5.8,16.9,14.2,21.7c4.8,2.8,10.1,4.6,15.5,6c4.9,1.2,9.8,2.1,14.8,2.4c2.9,0.2,5.9,0.7,8.9,1.1
		c0.1,0.9-0.8,1.4-1.3,2c-4.6,5.4-9.1,10.9-12.9,16.9c-3,4.8-5.6,9.8-7,15.3c-2.4,9.5-0.2,18.2,5.9,25.8
		c5.1,6.4,11.5,11.2,18.4,15.3c4.4,2.6,8.8,5.1,13.5,7.7c-0.6,0.4-1.1,0.9-1.7,1.2c-8.7,4.5-17.1,9.4-24.5,16
		c-4.3,3.9-8,8.2-10.3,13.6c-2.1,4.9-2.7,9.9-1.9,15.2c1.4,8.7,5.7,16.1,10.7,23.1c2.8,3.9,5.9,7.5,8.9,11.2
		c0.6,0.8,1.3,1.6,2.3,2.6c-1.1,0.2-1.9,0.5-2.7,0.6c-4,0.4-8,0.7-11.9,1.3c-3,0.4-5.9,1.1-8.9,1.8c-5.6,1.2-11,3.1-16,6.1
		c-6.5,3.9-11.1,9.2-13.1,16.6c-1.8,6.7-1.8,13.4-0.6,20.2c0.5,3,1,6,1.7,8.9c0.9,3.5,2,7,3,10.5c0.4,1.4,0.9,2.7,1.4,4.3
		c-0.7,0-1.2,0.1-1.7,0c-2.5-0.7-5-1.6-7.5-2.3c-3.4-0.9-6.8-1.7-10.2-2.5c-3.9-1-7.8-1.5-11.8-1.6c-4.1-0.2-8.2,0-12.1,1
		c-6.4,1.6-11.6,5.1-15.5,10.4c-3.7,5-5.9,10.7-7.5,16.6c-1.5,5.2-2.1,10.5-3,15.7c-0.3,1.5-0.1,3-0.3,4.5c-0.2,1.7-0.5,3.4-0.8,5.6
		c-1-0.8-1.7-1.3-2.4-1.8c-5.3-4.7-10.8-9.1-16.9-12.8c-4.4-2.7-9-5-14-6.4c-4-1.1-8-1.7-12.1-1c-4.5,0.7-8.7,2.4-12.5,5.1
		c-6.2,4.4-11,10.1-15.1,16.4c-3.3,5-6.1,10.4-9.2,15.6c-0.3,0.5-0.6,0.9-1.1,1.6c-0.9-1.7-1.7-3.1-2.4-4.5
		c-4.2-7.9-8.8-15.5-14.9-22.1c-4.4-4.8-9.4-8.9-15.7-10.8c-4.6-1.4-9.1-1.7-13.9-0.7c-8.3,1.7-15.4,5.8-22.1,10.7
		c-4,3-7.8,6.2-11.7,9.4c-0.7,0.5-1.4,1-2.2,1.7c-0.2-0.5-0.3-0.8-0.4-1.1c-0.6-5.6-0.9-11.1-1.8-16.7c-0.5-3.7-1.5-7.3-2.6-10.9
		c-1.2-3.9-2.8-7.8-5-11.3c-3.7-6-8.7-10.2-15.5-12.4c-6.8-2.1-13.7-2.1-20.6-0.9c-4.2,0.7-8.4,1.6-12.6,2.6c-3.3,0.8-6.5,2-9.8,2.9
		c-0.6,0.2-1.2,0.3-2.2,0.5c0.6-1.9,1-3.5,1.4-5c1.3-4.6,2.9-9.1,3.8-13.8c1.1-5.5,2.1-11,1.7-16.6c-0.4-6.3-1.8-12.3-5.7-17.5
		c-3.4-4.6-8-7.7-13.1-10.1c-4.7-2.2-9.7-3.6-14.8-4.6c-4.9-1-9.9-1.4-14.9-2C53.5,333.4,51.8,333.3,49.5,333z M97,249.9
		c0.1,84.9,68.6,151.9,150.4,153.2c87.4,1.4,155.9-69.2,155.9-153.1c0-84.8-68.9-152.8-152.1-153.3C166,96.2,96.8,165.7,97,249.9z"
		/>
	<path class="st0" d="M390.3,250c0.6,76.8-63,140.3-140.2,140.2c-77-0.1-140.3-62.5-140.2-140.3c0.1-78.1,62.9-140.4,140.4-140.4
		C328.2,109.6,390.8,173.2,390.3,250z"/>
</g>
</svg>
