<?xml version="1.0" encoding="utf-8"?>
<!-- Generator: Adobe Illustrator 24.0.2, SVG Export Plug-In . SVG Version: 6.00 Build 0)  -->
<svg version="1.1" id="Layer_1" xmlns="http://www.w3.org/2000/svg" xmlns:xlink="http://www.w3.org/1999/xlink" x="0px" y="0px"
	 viewBox="0 0 500 500" style="enable-background:new 0 0 500 500;" xml:space="preserve">
<style type="text/css">
	.st0{fill:#F7D59B;}
</style>
<g>
	<path class="st0" d="M264,481.1c-6.7-0.3-13.6-0.4-20.4-0.9c-3.8-0.2-7.6-1-11.4-1.5c-2.7-0.4-5.4-0.7-8-1.2
		c-2.9-0.5-5.8-1.1-8.6-1.7c-2-0.4-4.1-0.8-6.1-1.2c-1.8-0.4-3.5-0.8-5.3-1.3c-1.9-0.5-3.8-1-5.7-1.6c-2.4-0.7-4.7-1.3-7-2.1
		c-3.2-1.1-6.4-2.3-9.5-3.5c-5.7-2.3-11.5-4.4-17.1-7c-7-3.4-13.9-7-20.7-10.9c-8.9-5-17.2-10.8-25.2-17.1c-6.8-5.3-13.4-11-19.7-17
		c-7.4-7-14.2-14.6-20.6-22.6c-10.5-13.1-19.5-27.2-27-42.1c-3.8-7.6-7.2-15.4-10.1-23.4c-2.9-7.9-5.5-15.8-7.4-23.9
		c-1.2-4.9-2.4-9.7-3.4-14.6c-0.6-2.8-0.8-5.7-1.2-8.5c-0.5-3.5-1-7.1-1.5-10.6c0-0.3-0.1-0.6-0.1-1c-1-11.8-1.5-23.6-0.9-35.5
		c0.2-4,0.5-8,0.9-11.9c0.5-4.8,1.1-9.7,1.9-14.5c0.7-4.1,1.8-8.2,2.5-12.4c1.1-6.6,3-12.9,4.9-19.2c1.5-5.1,3.4-10.1,5.3-15
		c1.8-4.7,3.8-9.3,5.8-13.9c3.1-7.2,6.8-14,10.7-20.8c5-8.7,10.7-17.1,16.9-25.1c8.6-11.1,18-21.4,28.5-30.9
		c7.9-7.2,16.2-13.9,25.1-19.9c9.4-6.4,19.1-12.2,29.4-17.2c8.9-4.4,18-8.2,27.4-11.5c1.8-0.6,3.1-0.3,4.3,1
		c1.3,1.3,1.1,2.8,0.6,4.2c-1.6,4.1-3.4,8-4.9,12.1c-1.2,3.2-2.3,6.5-3.4,9.8c-1.2,3.6-2.3,7.2-3.4,10.8c-0.4,1.4-0.8,2.7-1.1,4.1
		c-1,4.1-2,8.2-2.9,12.3c-0.5,2.4-0.7,4.9-1.1,7.3c-0.5,3.1-1.1,6.3-1.6,9.4c0,0.2-0.1,0.5-0.1,0.7c-0.3,3.2-0.8,6.5-1,9.8
		c-0.3,5.8-0.7,11.5-0.7,17.3c0,6,0.3,12,0.6,18c0.2,4.7,0.6,9.4,1.1,14.1c0.5,4.1,1.1,8.2,1.9,12.3c0.7,3.9,1.7,7.7,2.6,11.6
		c0.7,3.1,1.3,6.2,2.1,9.3c0.7,2.7,1.7,5.4,2.5,8.1c1,3.1,1.9,6.2,3.1,9.2c2.3,6,4.6,12,7.1,17.8c3.9,9.1,8.6,17.9,13.8,26.3
		c5.3,8.6,11.1,16.8,17.5,24.8c7.4,9.2,15.5,17.8,24.1,25.8c6.1,5.7,12.6,11,19.4,16.1c7.3,5.4,14.8,10.5,22.8,14.9
		c5.7,3.2,11.6,6.2,17.5,9.1c4.7,2.3,9.5,4.5,14.4,6.4c4.9,1.9,10,3.5,15,5.1c3.8,1.2,7.5,2.4,11.4,3.5c3.3,0.9,6.6,1.5,10,2.2
		c4,0.8,8,1.6,12,2.4c2.6,0.5,5.2,0.9,7.8,1.2c5.3,0.5,10.7,1,16,1.4c10.1,0.8,20.3,0.7,30.4-0.1c4.9-0.4,9.7-0.7,14.6-1.3
		c4.8-0.6,9.5-1.5,14.2-2.4c3.8-0.7,7.5-1.5,11.2-2.3c1.6-0.3,3.3-0.7,4.8-1.2c1.7-0.6,3-0.1,4.1,1.1c1.1,1.3,1.4,2.6,0.5,4.4
		c-3.9,7.5-8.3,14.7-13.1,21.5c-3,4.3-5.9,8.8-9.2,12.8c-4.8,5.9-9.8,11.6-15,17.2c-6,6.5-12.5,12.6-19.3,18.2
		c-5.7,4.7-11.5,9.1-17.6,13.3c-7,4.9-14.2,9.4-21.8,13.4c-6.1,3.2-12.4,6.1-18.6,9c-4.3,2-8.7,3.7-13.1,5.4
		c-3.2,1.2-6.4,2.1-9.7,3.2c-2.7,0.9-5.4,1.8-8.1,2.5c-3.1,0.8-6.3,1.5-9.5,2.3c-2.1,0.5-4.3,1.1-6.4,1.6c-1.9,0.4-3.9,0.8-5.9,1.1
		c-1.6,0.3-3.3,0.6-4.9,0.8c-3.3,0.4-6.7,0.7-10,1.2c-5.6,0.9-11.3,0.9-17,1.2C270.7,480.9,267.4,481,264,481.1z"/>
</g>
</svg>
