<?xml version="1.0" encoding="utf-8"?>
<!-- Generator: Adobe Illustrator 24.0.2, SVG Export Plug-In . SVG Version: 6.00 Build 0)  -->
<svg version="1.1" id="Layer_1" xmlns="http://www.w3.org/2000/svg" xmlns:xlink="http://www.w3.org/1999/xlink" x="0px" y="0px"
	 viewBox="0 0 500 500" style="enable-background:new 0 0 500 500;" xml:space="preserve">
<style type="text/css">
	.st0{fill:#FFFFFF;}
	.st1{fill:#FFE045;}
</style>
<g>
	<path class="st0" d="M250.9,306.5c-46.1,0-92.2,0-138.2,0c-6.7,0-13.3-0.5-19.8-1.9c-9.1-2-17.8-5.2-26.1-9.7
		C56,289,46.7,281.4,38.9,272c-6.1-7.3-10.9-15.3-14.5-24.1c-2.9-6.9-4.8-14-5.9-21.4c-1.1-7.7-1.2-15.4-0.4-23.2
		c0.7-6.4,2-12.6,3.9-18.7c1.5-4.8,3.4-9.4,5.7-13.9c5-9.8,11.5-18.6,19.6-26.1c7.9-7.4,16.9-13.3,26.8-17.6
		c6.2-2.7,12.7-4.5,19.4-6c3.1-0.7,4.4-2.3,4.6-5.5c0.4-7.7,1.6-15.2,3.6-22.7c3.8-14.2,10.5-27,19.8-38.3
		c10.3-12.4,22.9-21.9,37.6-28.4c6.4-2.8,12.9-5,19.7-6.4c4.4-0.9,8.8-1.2,13.3-1.9c6.2-0.9,12.4-0.5,18.7,0.1
		c5.1,0.5,10.1,1.5,15.1,2.7c10.1,2.5,19.6,6.6,28.5,12.1c11.5,7.1,21.3,16.1,29.3,27.1c5,6.9,9.1,14.4,12.4,22.3
		c1.8,4.3,4.7,5.3,8.7,3c4.8-2.8,9.8-4.8,15.1-6.4c8.3-2.4,16.7-2.9,25.2-2.1c9,0.9,17.4,3.7,25.3,8.3c7.7,4.5,14.2,10.3,19.5,17.4
		c3.1,4.1,5.7,8.6,7.7,13.4c1.1,2.7,2.8,4.1,5.8,4.6c14.9,2.2,28.5,7.7,40.8,16.5c11.3,8.2,20.4,18.3,27.2,30.5c4,7.2,7,14.8,9,22.8
		c2.4,9.3,3.2,18.7,2.7,28.2c-0.3,5.2-0.9,10.4-2.1,15.4c-4.3,18.1-13.1,33.7-26.6,46.7c-8.8,8.4-18.9,14.9-30.2,19.4
		c-6.7,2.6-13.6,4.5-20.7,5.5c-4.7,0.7-9.4,0.9-14.1,0.9C343.1,306.5,297,306.5,250.9,306.5z"/>
	<path class="st1" d="M253,316.6c5.9,0,11.8,0,17.8,0c3.4,0,4.1,1,2.9,4.3c-3,8.4-5.9,16.8-8.9,25.2c-1.6,4.7,0.5,7.8,3.9,9.6
		c14.1,7,28.2,14.1,42.2,21.1c0.4,0.2,0.9,0.4,1.3,0.7c2.1,1.2,2.3,2.2,0.6,3.9c-2.5,2.5-5,4.9-7.5,7.4
		c-14.6,14.1-29.3,28.2-43.9,42.4c-17,16.5-34.1,32.9-51.1,49.4c-0.6,0.6-1.3,1.3-2,1.7c-1.5,0.8-3-0.3-2.8-2
		c0.2-1.2,0.7-2.4,1.1-3.6c2.9-8,5.8-16,8.6-24.1c2.1-5.8,4-11.6,6.1-17.4c2.9-8.1,5.9-16.1,8.8-24.2c2.1-5.8,4.1-11.5,6.1-17.4
		c0.9-2.6-0.1-4.9-2.6-6.2c-5.1-2.7-10.3-5.4-15.4-8c-9.8-5-19.5-10.1-29.3-15.1c-0.4-0.2-0.7-0.4-1.1-0.6c-1.3-0.9-1.5-2-0.4-3.2
		c1.4-1.5,2.9-2.9,4.4-4.4c13.1-12.7,26.1-25.3,39.2-38c1.1-1,2.1-1.5,3.6-1.5C240.7,316.6,246.8,316.6,253,316.6z"/>
	<path class="st0" d="M113.5,469.5c-7.6-0.7-14.8-5.6-19.1-14.7c-2-4.1-2.4-8.5-2.1-13.1c0.6-7,2.1-13.9,4.2-20.6
		c2.9-9,6.6-17.6,10.9-25.9c2.3-4.5,4.7-8.9,7.2-13.2c1.4-2.5,3.7-2.6,5.1,0c3.8,7.1,7.6,14.2,11,21.4c2.3,4.9,4.4,9.9,6.1,15
		c2.7,7.8,4.8,15.7,5.1,24c0.3,8.3-2.3,15.4-8.6,21C128.5,468,122.6,470.1,113.5,469.5z"/>
	<path class="st0" d="M381.7,428.7c-8.6,0.3-17.9-5.3-20.9-15.5c-0.7-2.4-1-5.1-0.9-7.6c0.4-6.9,1.9-13.6,4-20.1
		c2.4-7,5.2-13.9,8.5-20.5c1.9-3.8,3.9-7.5,5.9-11.2c0.1-0.2,0.2-0.4,0.3-0.6c1.9-3.1,4-3.1,5.8,0.1c1,1.7,2,3.5,2.9,5.2
		c5,9.5,9.5,19.1,12.6,29.4c1.7,5.4,2.8,11,3.2,16.6c0.7,9.2-4.1,18-12.3,22C387.9,428.1,384.8,429,381.7,428.7z"/>
</g>
</svg>
