<?xml version="1.0" encoding="utf-8"?>
<!-- Generator: Adobe Illustrator 24.0.2, SVG Export Plug-In . SVG Version: 6.00 Build 0)  -->
<svg version="1.1" id="Layer_1" xmlns="http://www.w3.org/2000/svg" xmlns:xlink="http://www.w3.org/1999/xlink" x="0px" y="0px"
	 viewBox="0 0 500 500" style="enable-background:new 0 0 500 500;" xml:space="preserve">
<style type="text/css">
	.st0{fill:#FFFFFF;}
	.st1{fill:#FFC061;}
</style>
<g>
	<path class="st0" d="M298.6,357c-26.7,0-53.4,0-80.1,0c-6.9,0-13.6-1.1-20.1-3.6c-9.6-3.7-17.4-9.6-23.6-17.7
		c-5.2-6.8-8.6-14.4-10-22.8c-2.5-15.3,1.1-29.2,10.6-41.4c7.4-9.6,17.1-15.6,28.7-18.7c0.5-0.1,0.9-0.2,1.4-0.3
		c4.1-0.6,5.4-2.2,5.8-6.3c0.3-3.2,0.7-6.3,1.4-9.5c1.4-7.2,4.5-13.8,8.6-19.8c5.7-8.4,13.1-14.8,22.2-19.3c5.4-2.7,11.1-4.4,17-5.3
		c7.6-1.1,15.2-0.9,22.6,0.9c12,2.9,22.2,9.2,30.3,18.6c4.1,4.8,7.5,10.1,9.8,16.1c1.3,3.1,2.8,4.2,5.5,4c0.7-0.1,1.5-0.2,2-0.6
		c4.1-2.5,8.6-4.2,13.4-4.8c3.5-0.4,7.2-0.5,10.8,0c6.7,0.9,12.7,3.6,17.9,8c4.4,3.6,7.8,8,10,13.3c1,2.4,2.6,3.7,5.3,4.2
		c19.5,3.5,33.3,14.3,41,32.5c3.2,7.4,4.4,15.2,3.8,23.2c-0.8,10.6-4.3,20.4-11,28.9c-5.5,7.1-12.3,12.5-20.5,16.1
		c-7.1,3.2-14.6,4.5-22.4,4.4C352.2,357,325.4,357,298.6,357z"/>
	<path class="st0" d="M140.7,311.8c-5.3,0.2-11.5-0.3-17.7-1.4c-5.3-1-10.5-2.6-15.5-4.9c-6.8-3.1-13.2-7.2-18.7-12.4
		c-7.7-7.2-13.6-15.6-17.4-25.5c-3.7-9.5-5.2-19.4-4.3-29.6c2.1-23.5,13.3-41.4,33.3-53.8c6.7-4.2,14.1-6.7,21.8-8.4
		c3.2-0.7,4.2-2,4.5-5.3c0.4-5.3,1.1-10.6,2.4-15.8c2.4-8.9,6.1-17.1,11.5-24.5c6.1-8.6,13.7-15.5,22.8-20.9
		c8-4.8,16.5-7.8,25.7-9.4c7.4-1.3,14.8-1.5,22.2-0.6c8.1,1,15.9,3.3,23.3,6.9c11,5.4,20.2,13,27.7,22.8c4.1,5.4,7.2,11.3,9.8,17.5
		c1.6,3.8,4.2,4.7,7.9,2.6c4.2-2.4,8.6-4.2,13.3-5.3c6-1.3,12-1.6,18.1-0.6c13,2.1,23.3,8.4,31,19c2.2,3,3.8,6.4,5.5,9.8
		c1,1.8,2.2,2.9,4.3,3.2c17.7,2.8,32.3,10.9,43.7,24.8c6.5,8,10.9,17,13.4,27c1.3,5.1,1.8,10.4,1.9,15.7c0.1,3.9-3,5.4-6.3,4.1
		c-3.8-1.5-7.6-2.7-11.5-3.8c-1.6-0.5-2.7-1.3-3.5-2.7c-4.6-8.3-11-14.6-19.4-18.9c-7.1-3.6-14.7-5.2-22.7-5
		c-4.4,0.2-8.7,1-12.9,2.4c-3.6,1.1-4.7,0.7-6.5-2.5c-4.9-8.6-11.4-15.8-19.4-21.6c-5.4-3.9-11.2-6.9-17.5-9.1
		c-9.5-3.3-19.2-4.3-29-3.3c-11,1.1-21.1,4.7-30.4,10.8c-10.4,6.8-18.3,15.9-23.7,27.1c-2.9,6-5.1,12.2-5.8,18.9
		c-0.3,2.9-1.6,4.6-4.6,5.6c-12.9,4.1-23.3,11.7-31.3,22.5c-5.4,7.2-8.9,15.3-10.8,24.1c-1,5-1.7,10.1-1.4,15.2
		c0.2,3.6-1.2,5.2-4.9,5.3C146.9,311.8,144.3,311.8,140.7,311.8z"/>
	<path class="st1" d="M303.6,133c-6.6,0.1-13.1,1.2-19.2,3.6c-0.5,0.2-0.9,0.3-1.4,0.4c-2.7,0.7-4.6-0.1-6.1-2.4
		c-2.6-4.2-5.3-8.3-8.1-12.4c-0.8-1.1-1.1-2.2-1.1-3.6c0.1-4,1.1-7.9,2.2-11.7c2.1-7,5.5-13.4,10.1-19.1c8.6-10.7,19.6-17.6,33-20.7
		c7.7-1.8,15.4-1.9,23.1-0.6c13.2,2.3,24.5,8.4,33.6,18.5c6.6,7.3,11,15.7,13.4,25.3c2.1,8.7,2.3,17.4,0.6,26.1
		c-2.1,10.4-6.8,19.5-13.9,27.4c-2.9,3.3-5.7,4.9-10.2,3.4c-2.5-0.8-4.4-1.6-5.8-4.1c-5.7-10.4-13.8-18.5-24.5-23.9
		c-5.5-2.7-11.2-4.7-17.2-5.4C309.4,133.5,306.5,133.3,303.6,133z"/>
	<path class="st0" d="M275.7,459.1c0.7-8.5,3-16.5,5.9-24.4c3.8-10.3,8.7-20,14.2-29.5c1.5-2.5,3.2-2.5,4.6,0
		c5.2,9.2,10,18.7,13.8,28.6c2.4,6.3,4.4,12.7,5.4,19.3c0.8,5.5,1.1,11.1-1.2,16.5c-3.8,9.1-13.2,14.9-23.3,13.5
		c-8.6-1.1-16.6-7.5-18.8-17.4C275.8,463.6,275.9,461.3,275.7,459.1z"/>
	<path class="st0" d="M141.4,418.8c-7.2-0.4-12.5-3.8-15.7-10.4c-1.7-3.5-2.1-7.1-1.6-11c1-9.6,4.3-18.6,8.3-27.3
		c2-4.4,4.3-8.7,6.6-13c0.6-1.1,1-2.5,2.6-2.5c1.5,0.1,2,1.4,2.6,2.5c4,7,7.4,14.3,10.3,21.8c2.5,6.7,4.4,13.5,4.7,20.7
		c0.4,8.2-3.7,14.8-11.1,17.9C146.1,418.5,143.8,418.9,141.4,418.8z"/>
	<path class="st0" d="M236.4,422.4c0,5.8-3,9.8-8.3,11.1c-4.2,1-9.1-1.2-11.2-5c-1.5-2.6-1.7-5.5-1.2-8.4c0.9-5.9,2.9-11.4,5.3-16.8
		c0.9-2,1.9-3.9,2.8-5.8c0.4-0.9,1-1.7,2.1-1.6c1.1,0,1.7,0.6,2.2,1.6c3.5,6.7,6.4,13.5,7.9,21C236.2,419.7,236.2,421,236.4,422.4z"
		/>
	<path class="st0" d="M356.9,421.1c0.2-3.9,1-7.8,2.5-11.4c1.5-3.9,3.3-7.8,5-11.6c0.2-0.4,0.4-0.7,0.6-1c1.1-1.6,2.8-1.6,3.7,0.2
		c1.5,2.8,2.9,5.7,4.1,8.6c1.8,4.4,3.3,9,3.9,13.8c0.6,5.2-1.8,9.8-6.4,11.7c-5.8,2.4-12.9-1.7-13.4-8.5
		C356.9,422.3,356.9,421.7,356.9,421.1z"/>
	<path class="st1" d="M330.7,29.6c0,2.7,0.1,5.4,0,8.1c-0.1,2.2-1.7,4.1-3.7,4.4c-2.7,0.4-5.2-1.4-5.3-4.2c-0.1-5.7-0.1-11.3,0-17
		c0-2.3,2.1-4.2,4.4-4.3c2.3-0.1,4.5,1.9,4.6,4.3C330.8,23.8,330.7,26.7,330.7,29.6L330.7,29.6z"/>
	<path class="st1" d="M382.7,62.9c0.4-0.9,0.6-2,1.3-2.7c4-4.1,8.1-8.2,12.2-12.2c1.4-1.4,3.9-1.4,5.3-0.3c1.8,1.3,2.4,3.6,1.5,5.6
		c-0.2,0.5-0.6,1-1,1.4c-3.9,3.9-7.8,7.8-11.7,11.7c-1.5,1.4-3.2,1.7-5.1,0.8C383.8,66.2,382.9,64.9,382.7,62.9z"/>
	<path class="st1" d="M269.6,62.9c-0.2,2-1.1,3.3-2.7,4.2c-1.8,0.9-3.5,0.7-5-0.8c-2.9-2.8-5.8-5.7-8.7-8.6
		c-0.8-0.8-1.6-1.6-2.4-2.4c-2.6-2.6-2.8-5-0.7-7c2.1-2,4.5-1.8,7.1,0.7c2.9,2.8,5.7,5.7,8.6,8.6c0.8,0.8,1.7,1.5,2.3,2.4
		C268.8,60.9,269.1,61.9,269.6,62.9z"/>
	<path class="st1" d="M421,128.7c-2.8,0-5.6,0-8.4,0c-2,0-3.4-1-4-2.9c-0.7-1.8,0-4,1.6-5.1c0.6-0.4,1.5-0.8,2.2-0.8
		c5.8-0.1,11.5-0.1,17.3,0c2.4,0,3.9,1.8,4,4.2c0,2.5-1.3,4.3-3.7,4.4C426.9,128.8,424,128.7,421,128.7
		C421,128.7,421,128.7,421,128.7z"/>
</g>
</svg>
