<?xml version="1.0" encoding="utf-8"?>
<!-- Generator: Adobe Illustrator 24.0.2, SVG Export Plug-In . SVG Version: 6.00 Build 0)  -->
<svg version="1.1" id="Layer_1" xmlns="http://www.w3.org/2000/svg" xmlns:xlink="http://www.w3.org/1999/xlink" x="0px" y="0px"
	 viewBox="0 0 500 500" style="enable-background:new 0 0 500 500;" xml:space="preserve">
<style type="text/css">
	.st0{fill:#FFFFFF;}
</style>
<g>
	<path class="st0" d="M308.6,330c-31.9,0-63.8,0-95.8,0c-4,0-8-0.1-11.9-0.8c-9.3-1.6-18.1-5-26-10.3c-8.5-5.8-15.5-13-20.6-21.9
		c-3.4-5.9-5.8-12.2-7.1-18.9c-1.3-6.6-1.7-13.2-0.9-20c1.5-12.7,6.3-23.9,14.4-33.8c7.3-9,16.5-15.3,27.2-19.5
		c3.2-1.3,6.7-1.9,10.1-2.7c2.7-0.6,4.4-2.4,4.4-5.1c0.3-9.4,2.5-18.3,6.4-26.8c7.3-15.5,18.7-27,34.3-34.4
		c9.7-4.6,19.9-6.6,30.6-6.6c17.3,0.1,32.6,6,45.8,17.2c8.7,7.4,15.2,16.4,19.4,27.1c1.3,3.4,3.6,4.8,6.4,3.9
		c0.9-0.3,1.7-0.8,2.6-1.3c4.4-2.5,9.1-4.2,14.1-5c3.9-0.6,7.9-0.8,11.9-0.4c6.4,0.7,12.4,2.6,18,5.8c6.9,4,12.3,9.5,16.3,16.4
		c1,1.6,1.7,3.4,2.5,5.1c0.9,1.9,2.2,3,4.3,3.3c9.7,1.4,18.6,4.7,26.8,10.2c10.3,6.8,18,15.9,23.1,27c2.6,5.7,4.3,11.8,5.1,18.1
		c0.5,3.7,0.7,7.3,0.6,11c-0.1,4.7-1,9.3-2.1,13.9c-1.7,6.9-4.6,13.2-8.5,19.1c-6.6,10-15.4,17.8-26.3,22.9
		c-4.8,2.2-9.7,3.9-14.9,4.9c-5,1-10,1.4-15,1.4C372.2,330,340.4,330,308.6,330z"/>
	<path class="st0" d="M119.8,275.6c-5.3-0.2-10.7-0.2-16-0.8c-4.3-0.5-8.7-1.4-12.9-2.6c-3.8-1-7.6-2.5-11.2-4
		c-6.2-2.6-11.9-6-17.3-10C55.5,253,49.5,247,44.5,240c-5.1-7.2-9-14.9-11.7-23.3c-3-9.8-4.4-19.8-3.7-30c0.4-6.1,1.3-12.1,3.1-17.9
		c5.3-17.6,15.3-32.1,29.9-43.2c7.1-5.4,15-9.6,23.5-12.4c3.6-1.2,7.4-2,11.1-2.9c2.4-0.6,3.9-2.2,4.1-4.6c0.3-6.1,1.1-12.1,2.5-18
		c2.3-9.5,6-18.4,11.2-26.7c8.7-14,20.3-24.8,34.8-32.6c6.7-3.6,13.7-6.3,21.1-8c10-2.4,20.1-3.2,30.4-2.2c6.1,0.6,12.2,1.7,18,3.6
		c17.1,5.5,31.6,14.8,43.2,28.6c6.5,7.7,11.6,16.1,15.3,25.5c1.2,2.9,3.8,4.9,7.7,2.7c4.8-2.7,9.8-5,15.2-6.3
		c7.3-1.7,14.6-2.4,22.1-1.3c8.2,1.2,15.8,3.8,22.8,8.1c10.1,6.2,17.5,14.8,22.5,25.6c0.4,0.8,0.6,1.7,1.1,2.4
		c0.8,1.4,1.9,2.3,3.6,2.5c2.4,0.4,4.9,0.8,7.3,1.4c8.8,1.9,17,5.2,24.7,9.9c11.9,7.2,21.5,16.9,28.7,28.9
		c3.6,6.1,6.4,12.6,8.4,19.4c2.1,7.5,3.2,15.1,3.2,22.9c0,2.4-1.3,5-4,5.8c-1.1,0.3-2.4,0.4-3.5,0.1c-3.9-1.2-7.7-2.6-11.5-3.9
		c-1.4-0.5-2.9-0.9-4.4-1.2c-1.9-0.4-3.1-1.7-3.9-3.2c-4.3-8-10.1-14.4-17.7-19.4c-4.8-3.2-10-5.5-15.6-7c-4-1.1-8.1-1.8-12.2-1.9
		c-4-0.1-8,0.3-11.9,0.9c-3,0.5-6,1.5-9,2.4c-2.8,0.8-5.5-0.3-7.1-3c-1.6-2.6-3.1-5.2-4.8-7.7c-5.5-8.1-12.4-14.7-20.4-20.2
		c-7.1-4.9-14.9-8.6-23.2-10.9c-5.3-1.5-10.7-2.4-16.2-2.8c-5-0.3-9.9-0.2-14.9,0.2c-3.7,0.3-7.3,1.4-11,2.1
		c-4.1,0.8-7.9,2.3-11.7,3.9c-6.7,2.9-12.8,6.6-18.5,11.2c-6.7,5.4-12.4,11.7-17.1,18.8c-3.4,5.2-6.2,10.7-8.3,16.6
		c-1.9,5.4-3.2,10.8-4,16.4c-0.4,2.6-2,4.4-4.6,5.2c-14.9,4.6-27.2,13-36.9,25.2c-5.4,6.9-9.4,14.4-12.1,22.8
		c-2.5,7.8-3.8,15.8-3.7,24c0,0.9-0.1,1.8,0,2.6c0.4,3.1-2.1,6.4-6.2,6.4c-3.4,0-6.9,0-10.3,0C119.8,275.5,119.8,275.5,119.8,275.6z
		"/>
	<path class="st0" d="M335.5,452.2c0.3,13.2-8,24.9-20.4,28.4c-3.8,1.1-7.8,1.4-11.8,0.6c-5.8-1.1-10.8-3.5-14.9-7.6
		c-4.4-4.3-7-9.5-7.9-15.7c-0.9-6.4,0.1-12.6,1.4-18.7c3-14.2,8.7-27.4,15.3-40.2c2.1-4.2,4.4-8.3,6.6-12.4c0.1-0.3,0.4-0.5,0.5-0.8
		c2-3.2,4.8-3.3,6.7,0c2.4,4.1,4.8,8.3,6.9,12.5c4.5,8.7,8.5,17.6,11.7,26.9c1.9,5.7,3.8,11.5,4.5,17.5
		C334.7,445.9,335.1,449.1,335.5,452.2z"/>
	<path class="st0" d="M97.5,380.8c0.4-4.9,1.2-9.5,2.4-14.2c1.4-5.6,3.4-11.1,5.6-16.5c3.1-7.7,6.9-15,10.8-22.3
		c0.2-0.3,0.4-0.5,0.6-0.8c2.1-2.8,4.8-2.8,6.4,0.2c2.8,5.2,5.7,10.5,8.1,15.9c2.5,5.4,4.7,10.9,6.7,16.5c1.8,5.1,3.3,10.3,3.6,15.8
		c0,0.6,0.1,1.1,0.2,1.7c1.3,10.1-2.2,18.2-10.8,23.7c-7.3,4.6-16.3,4.2-23.7-0.8c-4.3-2.9-7.2-7-8.8-11.9
		C97.9,386,97.9,383.4,97.5,380.8z"/>
	<path class="st0" d="M207.5,407.2c0.5-5.6,2-10.8,3.9-15.8c1.8-4.7,4-9.1,6.1-13.7c0.7-1.5,1.5-3,3.6-3.1c1.9-0.1,3,0.9,3.7,2.5
		c1.8,3.7,3.8,7.4,5.2,11.2c1.6,4.1,2.8,8.3,3.9,12.5c0.6,2.3,0.9,4.7,1,7.1c0.1,5.8-3.3,11.2-9,13.3c-7.3,2.7-14.7-1.5-17.1-8
		C208.1,411.3,207.9,409.2,207.5,407.2z"/>
	<path class="st0" d="M390.6,419.9c-6.3-0.1-10.8-3.7-12.6-9.8c-0.7-2.5-0.7-4.8-0.1-7.3c0.6-2.5,1-5.2,1.7-7.7
		c1.5-5.7,3.9-11.1,6.6-16.3c0.3-0.6,0.6-1.1,0.9-1.7c0.7-1.5,1.8-2.5,3.5-2.5c1.7,0,2.9,0.9,3.5,2.4c2.2,5,4.5,10,6.5,15.1
		c1.7,4.1,2.5,8.5,2.9,13c0.4,5.6-2,11.4-8.5,14C393.5,419.7,392,419.7,390.6,419.9z"/>
</g>
</svg>
