<?xml version="1.0" encoding="utf-8"?>
<!-- Generator: Adobe Illustrator 24.0.2, SVG Export Plug-In . SVG Version: 6.00 Build 0)  -->
<svg version="1.1" id="Layer_1" xmlns="http://www.w3.org/2000/svg" xmlns:xlink="http://www.w3.org/1999/xlink" x="0px" y="0px"
	 viewBox="0 0 500 500" style="enable-background:new 0 0 500 500;" xml:space="preserve">
<style type="text/css">
	.st0{fill:none;}
	.st1{fill:#FFFFFF;}
</style>
<g>
	<g>
		<path class="st0" d="M185.2,67.7c-0.7,0.2-1.4,0.2-2.1,0.4c-3,0.6-6.2,0.9-9.1,1.8c-9.6,2.8-18.2,7.4-25.8,14.1
			c-13.4,11.9-20.8,26.9-22.8,44.6c-0.2,1.8,0.2,3.5,1,5.1c2,4.2,6.2,6.2,11,5.2c4-0.8,6.9-4.3,7.3-8.7c0.2-2.1,0.5-4.3,1-6.4
			c1.5-5.9,3.8-11.5,7.3-16.5c8.6-12.2,20.3-19,35.1-20.6c5.4-0.6,9-4.2,9.2-9.7c-0.4-1.5-0.5-3-1.2-4.3
			C194.1,68.7,189,66.5,185.2,67.7z"/>
		<path class="st1" d="M470.1,215.6c-1-4.9-2.3-9.6-4.2-14.2c-6.7-15.8-17.4-28.2-32.3-36.9c-6.9-4-14.1-7-21.9-8.6
			c-2.4-0.5-4.8-1-7.2-1.5c-1.3-33.3-15.3-59.4-44.5-75.8c-29.2-16.5-58.9-14.8-88,1.6c-0.4-0.5-0.7-0.8-0.9-1.1
			c-5.9-8.1-12.7-15.3-20.8-21.3c-10.1-7.6-21.3-13-33.5-16.2c-5-1.3-10.1-2.1-15.3-2.7c-10.7-1.1-21.2-0.1-31.6,2.3
			c-7,1.6-13.7,4.1-20.1,7.3c-13.4,6.7-24.6,15.9-33.6,27.7c-8.6,11.2-14.3,23.6-17.5,37.3c-1.5,6.5-2.2,13.2-2.3,20
			c-0.1,5.5,0.3,11,1.4,16.4c0.3,1.4,0.3,2.8,0.4,4.3c-0.5,0.2-0.8,0.3-1.1,0.3c-7.9,0.8-15.5,3-22.7,6.3
			c-11.8,5.3-21.6,13.1-29.5,23.4c-5.3,6.9-9.3,14.6-12,22.9c-1.9,6-3.2,12-3.6,18.2c-0.6,10.2,0.5,20.2,3.8,30
			c2.8,8.2,6.7,15.7,11.9,22.5c7.9,10.2,17.7,18,29.5,23.4c5.7,2.6,11.6,4.3,17.7,5.6c4.9,1,9.8,1.1,14.8,1.1
			c94.7,0,189.4,0,284.1,0c6.8,0,13.6,0,20.2-1.8c3.8-1.1,7.8-1.9,11.4-3.4c11.1-4.4,20.8-11,28.9-19.9
			c10.7-11.8,17.2-25.5,19.3-41.3C472,232.7,471.9,224.2,470.1,215.6z M188,86.7c-14.7,1.7-26.5,8.4-35.1,20.6
			c-3.5,5-5.8,10.6-7.3,16.5c-0.5,2.1-0.8,4.2-1,6.4c-0.4,4.4-3.3,7.9-7.3,8.7c-4.8,1-8.9-1-11-5.2c-0.8-1.6-1.2-3.3-1-5.1
			c2.1-17.7,9.4-32.8,22.8-44.6c7.5-6.6,16.2-11.2,25.8-14.1c3-0.9,6.1-1.2,9.1-1.8c0.7-0.1,1.4-0.2,2.1-0.4
			c3.8-1.2,8.9,1.1,10.8,5.1c0.6,1.3,0.8,2.9,1.2,4.3C197,82.5,193.5,86.1,188,86.7z"/>
	</g>
	<path class="st1" d="M414.2,346.5c-0.7,2.5-1.4,5-2.2,7.5c-1.9,5.9-3.9,11.8-5.9,17.6c-0.8,2.5-1.5,5-2.5,7.4
		c-1.9,4.5-7.3,6.8-11.8,5.3c-4.9-1.7-7.7-6.5-6.3-11.5c1.2-4.4,2.8-8.8,4.2-13.1c1.8-5.4,3.5-10.7,5.4-16c0.8-2.4,2.2-4.4,4.5-5.6
		C406.5,334.4,414.1,339.4,414.2,346.5z"/>
	<path class="st1" d="M231,451.8c0.6-2.1,1.2-4.6,2-7.1c2.5-7.6,5-15.2,7.6-22.8c1-3,2.4-5.7,5.5-7.1c5.6-2.6,11.6,0.7,13.2,5.6
		c0.8,2.5,0.5,4.7-0.2,7c-2.4,7.3-4.9,14.6-7.4,21.9c-0.8,2.5-1.6,5-2.6,7.4c-1.7,3.6-5.5,5.7-9.4,5.2c-4-0.5-6.7-2.7-8.1-6.5
		C231.3,454.4,231.3,453.3,231,451.8z"/>
	<path class="st1" d="M356.4,423.5c-0.6,2.2-1.2,4.5-1.9,6.6c-2,6-4,12-6.1,18.1c-0.8,2.3-1.5,4.7-2.4,7c-1.4,3.8-4.7,6.4-8.5,6.6
		c-3.9,0.2-7.6-1.9-9.3-5.5c-1.2-2.7-1-5.4-0.1-8.2c2.9-8.5,5.7-17,8.6-25.5c0.7-2.2,1.4-4.4,3.2-6.1c5.2-5,13.2-2.8,15.5,3
		C355.8,420.8,356,422.1,356.4,423.5z"/>
	<path class="st1" d="M125.5,346.4c-0.4,1.7-0.8,3.2-1.3,4.7c-3,9-6,17.9-9,26.9c-1.5,4.5-5.1,6.9-9.8,6.8
		c-5.7-0.2-10.2-6.1-8.7-11.6c1.3-4.7,3-9.4,4.5-14.1c1.5-4.5,3-8.9,4.5-13.3c0.8-2.2,1.5-4.5,3.2-6.3c4.4-4.5,13.2-3.3,15.6,3.3
		C124.8,344,125.1,345.2,125.5,346.4z"/>
	<path class="st1" d="M288.8,374.6c0.5-1.9,1.2-4.3,1.9-6.6c2-6.1,4-12.2,6.1-18.4c0.8-2.3,1.4-4.6,2.4-6.8c2.4-5.4,6.8-6.9,12-5.6
		c4.5,1.2,7.5,6.6,6.2,11.2c-1.3,4.6-2.9,9.1-4.4,13.6c-1.7,5.3-3.5,10.6-5.3,15.8c-1.4,4.2-5,6.8-9.4,6.9c-3.6,0.1-7.6-2.3-9.1-6.8
		C288.9,377.1,289,376.1,288.8,374.6z"/>
	<path class="st1" d="M163.8,423.4c-0.4,1.9-0.8,3.7-1.4,5.5c-2,6.1-4.1,12.2-6.1,18.3c-1,3-1.9,6.1-3.2,9c-1.6,3.6-4.5,5.5-8.4,5.6
		c-4.1,0.1-7.1-1.8-8.8-5.4c-1.3-2.6-1.1-5.4-0.2-8.2c2.4-7.1,4.8-14.2,7.2-21.2c0.8-2.5,1.6-5,2.6-7.4c1.7-4.4,6.8-6.2,10.1-5.7
		C160.7,414.8,163.8,419,163.8,423.4z"/>
	<path class="st1" d="M221.6,346.5c-0.5,1.8-0.9,3.7-1.5,5.5c-2.8,8.6-5.7,17.2-8.6,25.8c-2.5,7.3-11.2,9.4-16.3,3.9
		c-2.8-2.9-3.1-6.5-1.9-10.1c2.4-7.5,4.9-15,7.5-22.4c0.7-2.1,1.5-4.2,2.2-6.3c1.6-4.5,5.8-7,11.4-5.9
		C217.8,337.8,221.6,341.4,221.6,346.5z"/>
</g>
</svg>
