<?xml version="1.0" encoding="utf-8"?>
<!-- Generator: Adobe Illustrator 24.0.2, SVG Export Plug-In . SVG Version: 6.00 Build 0)  -->
<svg version="1.1" id="Layer_1" xmlns="http://www.w3.org/2000/svg" xmlns:xlink="http://www.w3.org/1999/xlink" x="0px" y="0px"
	 viewBox="0 0 500 500" style="enable-background:new 0 0 500 500;" xml:space="preserve">
<style type="text/css">
	.st0{fill:#FFFFFF;}
	.st1{fill:#FFE045;}
</style>
<g>
	<path class="st0" d="M307.4,318.4c-31,0-62.1,0-93.1,0c-6.7,0-13.3-0.7-19.6-2.7c-9.8-3-18.5-8.1-26-15.2
		c-9.2-8.8-15.2-19.5-17.8-31.9c-1.6-7.6-1.7-15.3-0.4-23.1c1.9-10.8,6.3-20.4,13.2-28.8c8-9.7,18-16.4,30-20c2-0.6,4-1,6-1.5
		c3-0.7,4.5-2.5,4.6-5.5c1.4-21.9,10.8-39.5,28.4-52.5c8.6-6.3,18.2-10.2,28.7-11.8c6.4-1,12.9-1.2,19.4-0.3
		c14,1.8,26.2,7.3,36.8,16.5c8.4,7.2,14.6,16,18.6,26.3c1.5,3.8,5.3,4.4,8,2.7c8-4.8,16.8-6.7,26-5.8c10.4,1.1,19.5,5.4,26.8,13
		c3.5,3.7,6.4,7.8,8.3,12.5c1,2.6,2.9,3.9,5.7,4.4c19.2,3.1,33.9,13.1,44,29.6c3.6,5.9,5.9,12.3,7.4,19.1c1.6,7.6,1.8,15.1,0.6,22.6
		c-1.7,10.7-5.9,20.3-12.7,28.8c-5.5,6.8-12,12.3-19.8,16.4c-8.1,4.3-16.8,6.5-25.9,7c-2.1,0.1-4.2,0.2-6.2,0.2
		C368,318.4,337.7,318.4,307.4,318.4z"/>
	<path class="st0" d="M123.1,265.8c-4.9-0.3-9.9-0.4-14.8-0.9c-9.8-1-19-4-27.8-8.4c-14-7.1-25.1-17.5-33.1-31
		c-4.9-8.2-8.1-17.1-9.8-26.6c-1.4-8-1.6-16.1-0.6-24.1c1.1-8.1,3.3-15.9,6.8-23.3c5.3-11.3,12.8-20.9,22.5-28.8
		c6.2-5,13-8.9,20.4-11.9c4.8-1.9,9.7-3.4,14.7-4.3c3-0.6,4.5-2.6,4.8-5.7c0.3-2.7,0.4-5.4,0.7-8.1c0.7-7,2.7-13.6,5.2-20.1
		c3.1-8,7.3-15.4,12.7-22.2c7.3-9.4,16.2-16.9,26.6-22.7c8.6-4.8,17.7-8,27.4-9.7c9.3-1.6,18.6-1.9,27.9-0.4
		c6.3,1,12.5,2.5,18.5,4.8c9.7,3.6,18.5,8.9,26.4,15.6c9.4,8,16.8,17.7,22.2,28.8c0.9,1.9,1.7,3.9,2.5,5.9c1.6,3.7,4.6,4.7,8.1,2.7
		c10.4-6,21.5-8.5,33.6-7.4c13.9,1.3,25.5,7.1,35.2,17c4.7,4.8,8.3,10.3,10.9,16.5c1.1,2.5,2.7,3.9,5.4,4.3c4.3,0.8,8.6,1.7,12.8,3
		c13,3.9,24,11,33.4,20.8c10.1,10.5,16.9,22.9,20.4,37.1c1.4,5.7,2,11.5,2.2,17.3c0,1-0.1,2.1-0.4,3c-1.1,3.1-4,4.3-7.2,3.2
		c-4-1.4-8-2.8-12-4.1c-0.2-0.1-0.5-0.2-0.7-0.2c-3.2-0.1-4.9-2.1-6.4-4.7c-6.8-11.8-16.6-19.8-29.6-24c-8-2.6-16.1-3.4-24.4-1.9
		c-3,0.5-6,1.4-9,2.3c-3.9,1.1-5.8,0.4-7.8-3c-6.3-11-14.7-20-25.3-27c-8.1-5.3-16.9-9.1-26.5-11.2c-6.7-1.4-13.4-2.1-20.2-1.8
		c-16.9,0.9-32.1,6.6-45.3,17.2c-11.3,9.1-19.5,20.5-24.5,34.2c-1.9,5.3-3.1,10.7-4.1,16.2c-0.4,2.6-1.9,4.1-4.3,4.9
		c-18.5,5.8-32.5,17.2-42.1,34.1c-3.9,6.9-6.5,14.4-8,22.2c-1,5.2-1.3,10.5-1.1,15.8c0.1,1.7-0.1,3.4-1.4,4.7
		c-1.1,1.1-2.4,1.7-4.1,1.7c-3.7-0.1-7.4,0-11,0C123.1,265.6,123.1,265.7,123.1,265.8z"/>
	<path class="st1" d="M297.2,328.3c3.3,0,6.6,0,9.8,0c0.7,0,1.5,0,2.1,0.1c1.9,0.3,2.6,1.4,2.2,3.2c-0.4,1.5-0.9,2.9-1.4,4.3
		c-3.5,9.9-6.9,19.7-10.4,29.5c-1.4,4-0.2,7.6,3.6,9.5c6.2,3.2,12.5,6.3,18.8,9.5c5.9,3,11.9,5.9,17.8,8.9c2.8,1.4,3,3.1,0.7,5.4
		c-14.6,14.1-29.2,28.2-43.7,42.3c-14,13.5-27.9,27-41.9,40.5c-0.3,0.3-0.7,0.7-1.1,1c-0.9,0.8-1.8,1-2.9,0.4
		c-1.1-0.6-1.3-1.6-1-2.7c0.2-1,0.5-2,0.8-3c2.7-7.5,5.4-15,8-22.5c2.9-8.2,5.9-16.3,8.8-24.5c2.5-6.9,4.9-13.8,7.3-20.8
		c0.4-1.2,1-2.5,0.4-4c-0.5-1.5-1.3-2.5-2.6-3.2c-5.1-2.6-10.2-5.3-15.3-7.9c-7.7-4-15.5-7.9-23.2-11.9c-2.4-1.2-2.6-2.9-0.6-4.9
		c5.8-5.6,11.5-11.3,17.3-16.9c10.1-9.8,20.3-19.6,30.4-29.5c2-2,4.1-3,7-2.8C291.3,328.5,294.2,328.3,297.2,328.3z"/>
	<path class="st1" d="M141,407c-1.8,0-2.8-1.6-2.2-3.4c1-3,2.1-6,3.1-9c1.9-5.5,3.9-11,5.9-16.4c3-8.3,6-16.6,8.9-25
		c2.4-6.7,4.8-13.4,7-20.1c1.5-4.5-0.5-6.2-3.2-7.6c-11-5.6-22-11.3-32.9-17c-1.5-0.8-3-1.5-4.5-2.3c-2.4-1.3-2.7-3-0.8-4.9
		c4.4-4.4,8.9-8.7,13.4-13c1.6-1.6,3.2-3.1,4.9-4.6c2.4-2.2,3.8-1.9,5,1c1.9,4.4,4.3,8.6,7.1,12.5c8.5,11.9,19.5,20.5,33,26
		c9.1,3.7,18.6,5.1,28.3,5.2c1,0,2.1,0,3.1,0.1c1.1,0.1,2,0.4,2.4,1.6c0.4,1.1,0,2-0.8,2.8c-1.8,1.7-3.5,3.5-5.3,5.2
		c-18,17.4-35.9,34.7-53.9,52.1c-5.3,5.1-10.5,10.2-15.8,15.3C142.9,406.1,142.2,407.1,141,407z"/>
</g>
</svg>
